<svg xmlns="http://www.w3.org/2000/svg" viewBox="0 0 104.498 11.93"><path d="M98.672 3.02c0 .74-.295.89-.77.89s-.768-.15-.768-.89V0h-1.1v2.982a1.87 1.87 0 1 0 3.74 0V0h-1.1zm4.528-.673L104.42 0h-1.207l-.615 1.27-.616-1.27h-1.21l1.222 2.347-1.296 2.46h1.21l.69-1.41.692 1.41h1.208l-1.297-2.46M73.266.09l2.857 7.192 2.872-7.19h3.157L77.098 11.93h-2.014L70.11.09zm19.761 2.607H87.87v1.98h4.03V7.28h-4.03v2.04h5.157v2.608h-8.043V.09h8.047zM67.124 11.93h3.16L65.306.09h-2.01l-5.058 11.84h3.156l.814-2.037h4.107zm-4.082-4.522l1.225-3.07 1.217 3.07zM40.64 5.907a3.14 3.14 0 0 0 1.717-2.67A3.4 3.4 0 0 0 38.72.09H33.5v11.84h5.477a3.45 3.45 0 0 0 3.686-3.265 2.99 2.99 0 0 0-2.022-2.758zm-4.5-3.38h2.28a1.148 1.148 0 0 1 1.187 1.15 1.2 1.2 0 0 1-1.186 1.216h-2.28zm2.5 6.984h-2.5V7.09h2.332a1.352 1.352 0 0 1 1.382 1.186 1.227 1.227 0 0 1-1.217 1.234zm17.227 2.419l-3.05-4.464A3.658 3.658 0 0 0 55.19 3.91 3.642 3.642 0 0 0 51.576.09h-5.762v11.84h2.707v-4.3h1.342l2.89 4.3zm-7.345-9.31h2.826a1.354 1.354 0 0 1 1.344 1.345 1.42 1.42 0 0 1-1.344 1.416h-2.826z" fill="#919191"/><path d="M0 1.26h.746l1.857 5.863c.38 1.22.64 2.147 1.05 3.366h.06C4.127 9.27 4.4 8.34 4.78 7.123L6.638 1.26h.7L4.065 11.295h-.762zm8.496.366a.61.61 0 1 1 1.218 0 .61.61 0 0 1-1.218 0zm.26 2.36h.67v7.31h-.67zm2.966 5.984a3.393 3.393 0 0 0 2.33.93c1.143 0 1.736-.67 1.736-1.447 0-.914-.944-1.31-1.78-1.614-1.113-.4-2.33-.838-2.33-2.087 0-1.066.836-1.95 2.36-1.95a3.39 3.39 0 0 1 2.085.762l-.365.472a2.765 2.765 0 0 0-1.75-.655c-1.128 0-1.647.655-1.647 1.325 0 .807.855 1.157 1.722 1.477 1.143.427 2.392.807 2.392 2.24a2.182 2.182 0 0 1-2.467 2.055 4.232 4.232 0 0 1-2.68-1zm6.426-8.344a.61.61 0 1 1 1.218 0 .61.61 0 0 1-1.218 0zm.26 2.36h.67v7.31h-.67zm3.652.579h-1.142v-.518l1.157-.06.09-2.118h.58v2.116h2.116v.58h-2.115V9.33c0 .93.23 1.553 1.233 1.553a2.448 2.448 0 0 0 .914-.226l.183.547a4.083 4.083 0 0 1-1.188.274c-1.416 0-1.827-.9-1.827-2.207z" fill="#bdbdbd"/></svg>