<svg xmlns="http://www.w3.org/2000/svg" viewBox="2483 1055.038 85.606 52.962"><defs><style>.cls-1{fill:#fff}.cls-2{fill:#424242;opacity:.5}</style></defs><g id="bravery-logo" transform="translate(2483 1055.038)"><path id="Path_50" data-name="Path 50" class="cls-1" d="M65.2 0H34.5l-6.746 6.562L37.8 51.624l1.907 1.294.064.043 5.969-5.8h29.967zM44.141 43.232L40.7 46.575 32.068 7.85l4.024-3.915h25.956l8.764 39.3z" transform="translate(9.899)"/><path id="Path_51" data-name="Path 51" class="cls-1" d="M49.646 52.946l.024.016 1.936-1.882L41.558 6.018 32.7 0H0l10.514 47.162h30.615zm-35.979-9.714L4.9 3.934h26.593L38.066 8.4l8.39 37.634-4.118-2.795z"/><path id="Path_52" data-name="Path 52" class="cls-2" d="M41.368 52.946l1.96-1.864L33.279 6.017l-.605-2.643-1.492 1.218L24.417 0 23.21 3.93l6.573 4.463 8.391 37.634-4.116-2.795-1.207 3.929 8.479 5.759.038.027" transform="translate(8.278)"/></g></svg>