<svg xmlns="http://www.w3.org/2000/svg" viewBox="2169 17 103.436 80.385"><defs><style>.a{fill:#e6d3ba}.b{fill:#f33a3a}</style></defs><path class="a" d="M2220.856 42.355a23.408 23.408 0 1 0 .04 0zm-2.3 26.458c-.092.459-.276.919-.459 1.562a8.144 8.144 0 0 1-.735 1.562 15.969 15.969 0 0 1-1.194 1.378 8.93 8.93 0 0 1-2.661 1.74 19.622 19.622 0 0 1-3.123.827 10.944 10.944 0 0 1-3.032-.092 3.725 3.725 0 0 1-2.2-1.194 2.367 2.367 0 0 1-.735-1.194 3.809 3.809 0 0 1-.276-1.47v-1.47a12.907 12.907 0 0 1 .184-1.654l1.373-9.453c0-.092.092-.184.276-.184l3.767-.459c.184 0 .367.092.276.276l-1.286 8.636c-.092.459-.092.827-.184 1.1v1.011a2.56 2.56 0 0 0 .092.919 2.751 2.751 0 0 0 .367.735 2 2 0 0 0 .735.459 4.853 4.853 0 0 0 1.194.092 3.81 3.81 0 0 0 2.388-1.285 3.177 3.177 0 0 0 .643-1.1c.184-.459.276-.919.367-1.194q.138-.551.276-1.378l1.374-8.735c0-.092.092-.184.276-.184l3.767-.459c.184 0 .367.092.276.276l-1.47 9.187a23.814 23.814 0 0 1-.276 1.745zm18.653-12.678l-6.063 7.9a.173.173 0 0 0 0 .276l4.593 8.084c.092.184 0 .367-.184.367l-4.593.551c-.092 0-.184 0-.276-.184l-2.48-4.774a.26.26 0 0 0-.459 0l-3.675 5.42a.478.478 0 0 1-.367.184l-4.41.459a.311.311 0 0 1-.276-.459l6.8-9.187a.173.173 0 0 0 0-.276l-3.858-6.8c-.092-.184 0-.367.184-.367l4.777-.551c.092 0 .184.092.276.184l1.745 3.767c0 .092.184.092.276 0l3.032-4.41c0-.092.092-.092.184-.092l4.593-.551c.184 0 .276.184.184.459z"/><path class="a" d="M2271.567 46.857h-25.447a31.51 31.51 0 0 0-50.527 0h-25.723a.9.9 0 0 0-.735 1.378l1.565 2.664c1.1 1.745 2.2 3.491 3.215 5.42a.882.882 0 0 0 .827.551h15.982c-.367 1.286-.643 2.572-.919 3.95h-11.851c-.735 0-1.194.919-.919 1.745 1.1 2.389 2.021 4.869 2.94 7.441a1.056 1.056 0 0 0 .919.735h8.819a27.482 27.482 0 0 0 .919 3.95h-7.441a1.125 1.125 0 0 0-.919 1.562l2.2 6.89a2.067 2.067 0 0 0 2.021 1.47h9a31.556 31.556 0 0 0 50.711 0h8.727a2.185 2.185 0 0 0 2.021-1.47l2.2-6.89c.184-.735-.276-1.562-.919-1.562h-7.06c.367-1.286.643-2.572.919-3.95h8.452a1.056 1.056 0 0 0 .919-.735c.919-2.572 1.837-5.053 2.94-7.441a1.167 1.167 0 0 0-.919-1.745H2252a27.481 27.481 0 0 0-.919-3.95h15.619a.882.882 0 0 0 .827-.551 105.751 105.751 0 0 1 3.215-5.42l1.562-2.664a.9.9 0 0 0-.735-1.378zm-50.711 46.209a27.285 27.285 0 1 1 27.285-27.287 27.285 27.285 0 0 1-27.285 27.287z"/><path class="b" d="M2190.173 32.985l-1.47-2.48 1.837-1.194-.826-1.379-1.929 1.1-.643-1.1 2.112-1.194-.919-1.47-3.675 2.2 3.859 6.532zm1.726-9.46l1.753-.806 3.181 6.93-1.755.8zm8.287 3.764a4.024 4.024 0 0 0 3.123.184 3.564 3.564 0 0 0 2.572-2.389 2.725 2.725 0 0 0 .184-1.47 6.818 6.818 0 0 0-.367-1.654l-3.674 1.195.459 1.47 1.562-.459a1.5 1.5 0 0 1-.184 1.1 1.685 1.685 0 0 1-.919.643 1.823 1.823 0 0 1-1.654-.276 2.837 2.837 0 0 1-1.011-1.47 2.829 2.829 0 0 1 0-1.745 1.621 1.621 0 0 1 1.194-1.1 1.879 1.879 0 0 1 1.011 0 1.47 1.47 0 0 1 .827.643l1.562-1.286a4.009 4.009 0 0 0-1.745-1.1 4.168 4.168 0 0 0-2.113.092 3.868 3.868 0 0 0-2.48 1.929 4.056 4.056 0 0 0-.184 3.123 3.877 3.877 0 0 0 1.837 2.572zm11.392-2.021l-.364-3.032 2.756-.367.456 3.031 1.929-.276-1.01-7.44-1.931.183.367 2.94-2.848.367-.365-2.939-1.929.276 1.011 7.533zm9-.643h1.936l.092-5.88h1.654v-1.653l-5.241-.092v1.654h1.654zm14.336-1.378l2.021.551.459-1.654-2.113-.459.274-1.285 2.3.551.365-1.651-4.226-.922-1.746 7.349 1.929.459zm7.349 5.7a3.923 3.923 0 0 0 3.215 0 4.062 4.062 0 0 0 2.2-2.389 3.362 3.362 0 0 0 .184-2.113 4.341 4.341 0 0 0-.915-1.845 3.961 3.961 0 0 0-1.745-1.19 4.092 4.092 0 0 0-2.113-.276 3.551 3.551 0 0 0-1.929.735 4.49 4.49 0 0 0-1.286 1.654 3.923 3.923 0 0 0 0 3.215 4.342 4.342 0 0 0 2.389 2.2zm-.459-4.685a2.144 2.144 0 0 1 1.1-1.1 2.549 2.549 0 0 1 1.654 0 2.012 2.012 0 0 1 1.194 1.1 1.865 1.865 0 0 1 .092 1.562 2.354 2.354 0 0 1-1.194 1.286 2.079 2.079 0 0 1-1.654.092 2.175 2.175 0 0 1-1.194-1.202 2.828 2.828 0 0 1 0-1.745zm9.83 5.7l.092 3.491 2.113 1.286-.367-3.95a2.028 2.028 0 0 0 1.47 0 2.337 2.337 0 0 0 1.1-1.011 2.255 2.255 0 0 0 .276-1.837 2.643 2.643 0 0 0-1.378-1.47l-2.572-1.47-3.858 6.523 1.654 1.011zm1.652-2.762l.184.092c.827.459 1.011 1.011.735 1.47-.276.551-.919.551-1.654.092l-.184-.092z"/></svg>