<?xml version="1.0" standalone="no"?>
<!DOCTYPE svg PUBLIC "-//W3C//DTD SVG 20010904//EN"
 "http://www.w3.org/TR/2001/REC-SVG-20010904/DTD/svg10.dtd">
<svg version="1.0" xmlns="http://www.w3.org/2000/svg"
 width="700.000000pt" height="700.000000pt" viewBox="0 0 700.000000 700.000000"
 preserveAspectRatio="xMidYMid meet">
<metadata>
Created by potrace 1.11, written by Peter Selinger 2001-2013
</metadata>
<g transform="translate(0.000000,700.000000) scale(0.100000,-0.100000)"
fill="#000000" stroke="none">
<path d="M170 6306 c0 -5 90 -261 218 -621 28 -77 89 -250 137 -385 47 -135
95 -267 105 -295 10 -27 58 -160 105 -295 48 -135 97 -274 110 -310 13 -36 94
-263 180 -505 86 -242 169 -476 185 -520 16 -44 115 -323 220 -620 105 -297
205 -576 220 -620 57 -156 162 -451 182 -510 11 -33 24 -69 28 -80 5 -11 36
-96 69 -190 130 -372 223 -631 231 -645 8 -13 164 -15 1315 -16 1176 0 1306 1
1302 15 -5 15 -62 179 -217 621 -38 107 -98 278 -135 380 -36 102 -72 203 -80
225 -22 64 -127 365 -193 550 -163 463 -331 946 -347 995 -10 30 -21 59 -26
64 -5 6 -9 18 -9 28 0 9 -6 32 -14 50 -16 36 -254 703 -347 973 -33 94 -63
179 -68 190 -4 11 -21 56 -36 100 -15 44 -54 157 -87 250 -82 232 -155 441
-292 829 -64 182 -121 333 -128 337 -10 6 -2628 11 -2628 5z"/>
<path d="M4196 6301 c-6 -9 -85 -231 -201 -566 -53 -154 -107 -309 -120 -345
-13 -36 -40 -111 -59 -166 l-34 -102 18 -53 c10 -30 53 -153 95 -274 152 -437
187 -541 198 -577 6 -21 14 -38 17 -38 3 0 20 44 38 98 18 53 63 180 98 282
36 102 81 229 100 283 19 53 49 141 68 195 19 53 76 216 127 362 50 146 97
270 104 275 8 6 239 10 651 9 551 0 639 -2 637 -15 -4 -22 -31 -99 -268 -774
-31 -88 -63 -180 -71 -205 -8 -25 -19 -54 -24 -65 -5 -11 -45 -126 -90 -255
-104 -297 -197 -563 -265 -755 -29 -82 -60 -170 -68 -195 -8 -25 -41 -117 -72
-205 -31 -88 -61 -171 -65 -185 -4 -14 -62 -179 -129 -368 -96 -273 -118 -347
-111 -365 5 -12 39 -105 75 -207 37 -102 77 -214 90 -250 13 -36 44 -123 70
-195 26 -71 50 -139 55 -150 5 -11 16 -40 24 -65 17 -52 11 -61 70 112 20 59
40 117 46 130 5 13 57 160 116 328 58 168 144 413 191 545 47 132 105 299 130
370 25 72 49 139 53 150 8 19 191 539 325 920 34 99 106 302 158 450 52 149
109 308 125 355 17 47 101 285 187 530 86 245 161 459 167 475 5 17 14 39 18
50 10 24 160 454 160 459 0 7 -2630 4 -2634 -3z"/>
</g>
</svg>
