<svg xmlns="http://www.w3.org/2000/svg" viewBox="0 0 175.1 404.61"><title>compass-directory</title><g id="Layer_2" data-name="Layer 2"><g id="Layer_1-2" data-name="Layer 1"><rect width="175.1" height="404.61" style="fill:#006064"/><path d="M25.21,36.08h3.92c5.19,0,7.65,3,7.65,7.66s-2.46,7.78-7.62,7.78H25.21V36.08ZM29,50.61c4.58,0,6.55-2.83,6.55-6.86S33.58,37,29,37H26.39V50.61Z" style="fill:#fff"/><path d="M40.11,36.65a1,1,0,1,1,1,.91A1,1,0,0,1,40.11,36.65Zm.44,3.63h1.13V51.52H40.54Z" style="fill:#fff"/><path d="M46.4,40.28h1l.1,2.08h.08A4.2,4.2,0,0,1,51,40a2.73,2.73,0,0,1,1.23.23l-.26.94A2.89,2.89,0,0,0,50.88,41c-1.1,0-2.4.77-3.35,2.88v7.66H46.4Z" style="fill:#fff"/><path d="M58.59,40c2.92,0,4.71,1.9,4.71,5.2a4.7,4.7,0,0,1-.05.84H54.39c.05,2.83,1.87,4.87,4.63,4.87a5.77,5.77,0,0,0,3.3-1l.46.8a7.3,7.3,0,0,1-3.86,1.1,5.52,5.52,0,0,1-5.68-5.88C53.24,42.25,55.85,40,58.59,40Zm3.63,5.25c0-2.88-1.41-4.36-3.61-4.36s-4,1.66-4.22,4.36Z" style="fill:#fff"/><path d="M71.2,40a5.27,5.27,0,0,1,3.61,1.38l-.67.73a4.37,4.37,0,0,0-2.92-1.19c-2.51,0-4.45,2-4.45,5s1.77,5,4.45,5a5.17,5.17,0,0,0,3.28-1.29l.59.7a6.09,6.09,0,0,1-3.92,1.5c-3.17,0-5.58-2.15-5.58-5.88A5.54,5.54,0,0,1,71.2,40Z" style="fill:#fff"/><path d="M78.4,41.17H76.48v-.8l1.94-.09L78.58,37h1v3.26h3.56v.89H79.55V48.5c0,1.43.38,2.39,2.07,2.39a4.41,4.41,0,0,0,1.54-.35l.31.84a7.4,7.4,0,0,1-2,.42c-2.38,0-3.07-1.38-3.07-3.4Z" style="fill:#fff"/><path d="M90.32,40c3,0,5.53,2.15,5.53,5.93s-2.56,5.88-5.53,5.88-5.5-2.15-5.5-5.88S87.38,40,90.32,40Zm0,10.89c2.48,0,4.35-2,4.35-5s-1.87-5-4.35-5-4.32,2-4.32,5S87.84,50.89,90.32,50.89Z" style="fill:#fff"/><path d="M99.54,40.28h1l.1,2.08h.08A4.2,4.2,0,0,1,104.17,40a2.73,2.73,0,0,1,1.23.23l-.26.94A2.89,2.89,0,0,0,104,41c-1.1,0-2.4.77-3.35,2.88v7.66H99.54Z" style="fill:#fff"/><path d="M107.86,55.69c1.51,0,2.53-1.26,3.15-3l.33-1-5-11.45h1.23l3,7.07c.38.94.87,2.15,1.33,3.14h.1c.38-1,.79-2.2,1.13-3.14l2.64-7.07h1.15L112,52.92c-.69,1.87-1.92,3.72-4.12,3.72a3.39,3.39,0,0,1-1.25-.23l.26-.91A3.14,3.14,0,0,0,107.86,55.69Z" style="fill:#fff"/><g style="opacity:0.800000011920929"><path d="M26.79,91.92H24.3L23.64,94h-.88l2.31-6.83h1L28.36,94h-.93Zm-.22-.7-.32-1c-.25-.76-.47-1.51-.69-2.3h0c-.21.79-.43,1.54-.68,2.3l-.32,1Z" style="fill:#f1f0f0"/><path d="M29.24,88.94H30l.07.92h0a1.73,1.73,0,0,1,1.44-1,1.25,1.25,0,0,1,.54.1l-.17.75a1.42,1.42,0,0,0-.49-.08c-.43,0-.94.31-1.28,1.17V94h-.85Z" style="fill:#f1f0f0"/><path d="M32.86,88.94h.71l.07.73h0a2.38,2.38,0,0,1,1.7-.85c1.06,0,1.54.69,1.54,2V94h-.85V90.9c0-.95-.29-1.35-1-1.35s-.87.27-1.38.78V94h-.85Z" style="fill:#f1f0f0"/><path d="M40.52,88.81a2.67,2.67,0,1,1-2.34,2.66A2.42,2.42,0,0,1,40.52,88.81Zm0,4.6c.87,0,1.46-.78,1.46-1.94s-.58-2-1.46-2-1.46.79-1.46,2S39.65,93.41,40.52,93.41Z" style="fill:#f1f0f0"/><path d="M44.19,86.59H45V93c0,.27.12.38.24.38a.72.72,0,0,0,.19,0l.12.65a1.15,1.15,0,0,1-.49.08c-.65,0-.9-.4-.9-1.14V86.59Z" style="fill:#f1f0f0"/><path d="M48.68,88.81a2.08,2.08,0,0,1,1.42.58l0-.86V86.59h.86V94h-.71l-.07-.59h0a2.28,2.28,0,0,1-1.53.72c-1.27,0-2.09-1-2.09-2.64A2.39,2.39,0,0,1,48.68,88.81Zm.08,4.59a1.71,1.71,0,0,0,1.29-.7V90.06a1.76,1.76,0,0,0-1.23-.53c-.81,0-1.46.78-1.46,1.94S47.88,93.4,48.76,93.4Z" style="fill:#f1f0f0"/><path d="M54.11,87.17H55l.72,3.71c.13.74.27,1.47.4,2.21h0c.16-.74.32-1.48.48-2.21l.95-3.71h.79l.95,3.71c.17.72.33,1.47.5,2.21h0c.13-.74.25-1.48.38-2.21L61,87.17h.83L60.39,94h-1l-1-4.11c-.12-.53-.23-1-.33-1.55h0c-.1.53-.23,1-.34,1.55l-1,4.11h-1Z" style="fill:#f1f0f0"/><path d="M64.88,88.81a2.67,2.67,0,1,1-2.34,2.66A2.42,2.42,0,0,1,64.88,88.81Zm0,4.6c.87,0,1.46-.78,1.46-1.94s-.58-2-1.46-2-1.46.79-1.46,2S64,93.41,64.88,93.41Z" style="fill:#f1f0f0"/><path d="M68.55,88.94h.71l.07.92h0a1.73,1.73,0,0,1,1.44-1,1.25,1.25,0,0,1,.54.1l-.17.75a1.42,1.42,0,0,0-.49-.08c-.43,0-.94.31-1.28,1.17V94h-.85Z" style="fill:#f1f0f0"/><path d="M72.16,86.59H73V93c0,.27.11.38.24.38a.72.72,0,0,0,.19,0l.11.65a1.15,1.15,0,0,1-.49.08c-.65,0-.9-.4-.9-1.14V86.59Z" style="fill:#f1f0f0"/><path d="M76.65,88.81a2.08,2.08,0,0,1,1.42.58l0-.86V86.59h.86V94h-.71l-.07-.59h0a2.28,2.28,0,0,1-1.53.72c-1.27,0-2.09-1-2.09-2.64A2.4,2.4,0,0,1,76.65,88.81Zm.08,4.59a1.71,1.71,0,0,0,1.29-.7V90.06a1.76,1.76,0,0,0-1.23-.53c-.81,0-1.46.78-1.46,1.94S75.85,93.4,76.73,93.4Z" style="fill:#f1f0f0"/><path d="M80,88.94h.88l.75,2.93c.11.48.21.94.3,1.4h0c.11-.47.22-.94.34-1.4l.78-2.93h.83l.79,2.93c.13.48.24.94.35,1.4h0c.11-.47.21-.93.31-1.4l.74-2.93H87L85.61,94h-1l-.73-2.72c-.12-.48-.22-.95-.34-1.46h0c-.11.51-.22,1-.35,1.47L82.4,94h-1Z" style="fill:#f1f0f0"/><path d="M87.92,87.35a.59.59,0,0,1,1.19,0,.59.59,0,0,1-1.19,0Zm.16,1.59h.85V94h-.85Z" style="fill:#f1f0f0"/><path d="M92.46,88.81a2.08,2.08,0,0,1,1.42.58l0-.86V86.59h.86V94H94l-.07-.59h0a2.28,2.28,0,0,1-1.53.72c-1.27,0-2.09-1-2.09-2.64A2.4,2.4,0,0,1,92.46,88.81Zm.08,4.59a1.71,1.71,0,0,0,1.29-.7V90.06a1.76,1.76,0,0,0-1.23-.53c-.81,0-1.46.78-1.46,1.94S91.66,93.4,92.55,93.4Z" style="fill:#f1f0f0"/><path d="M98.3,88.81c1.29,0,2,.93,2,2.37a3,3,0,0,1,0,.47H96.88a1.68,1.68,0,0,0,1.69,1.78,2.28,2.28,0,0,0,1.26-.4l.3.56a3,3,0,0,1-1.67.52,2.68,2.68,0,0,1-.16-5.31Zm1.27,2.28c0-1-.46-1.6-1.25-1.6a1.58,1.58,0,0,0-1.46,1.6Z" style="fill:#f1f0f0"/></g><g style="opacity:0.800000011920929"><path d="M139.8,93.29h1.52V88.4h-1.21v-.55a4,4,0,0,0,1.4-.49h.66v5.93h1.37V94H139.8v-.71Z" style="fill:#f1f0f0"/><path d="M144.61,90.66c0-2.23.8-3.42,2.13-3.42s2.12,1.2,2.12,3.42-.8,3.46-2.12,3.46S144.61,92.88,144.61,90.66Zm3.42,0c0-1.95-.52-2.74-1.29-2.74s-1.3.79-1.3,2.74.52,2.78,1.3,2.78S148,92.6,148,90.66Z" style="fill:#f1f0f0"/><path d="M149.78,90.66c0-2.23.8-3.42,2.13-3.42s2.12,1.2,2.12,3.42-.8,3.46-2.12,3.46S149.78,92.88,149.78,90.66Zm3.42,0c0-1.95-.52-2.74-1.29-2.74s-1.3.79-1.3,2.74.52,2.78,1.3,2.78S153.2,92.6,153.2,90.66Z" style="fill:#f1f0f0"/></g><g style="opacity:0.800000011920929"><path d="M27.41,128.35l-1.65-2.88H24.53v2.88h-.86v-6.83H25.8c1.4,0,2.39.5,2.39,1.92a1.87,1.87,0,0,1-1.53,1.94l1.73,3h-1Zm-2.88-3.59h1.15c1.06,0,1.66-.44,1.66-1.32s-.59-1.22-1.66-1.22H24.53Z" style="fill:#f1f0f0"/><path d="M32.39,125.15c0-.65-.22-1.27-1-1.27a2.73,2.73,0,0,0-1.51.54l-.34-.59a3.75,3.75,0,0,1,2-.65c1.24,0,1.76.82,1.76,2.08v3.1h-.71l-.07-.6h0a2.75,2.75,0,0,1-1.67.73A1.38,1.38,0,0,1,29.28,127C29.28,125.94,30.23,125.39,32.39,125.15ZM31,127.79a2.07,2.07,0,0,0,1.38-.68v-1.4c-1.7.21-2.27.62-2.27,1.27A.77.77,0,0,0,31,127.79Z" style="fill:#f1f0f0"/><path d="M34.86,123.3h.71l.07.92h0a1.73,1.73,0,0,1,1.44-1,1.25,1.25,0,0,1,.54.1l-.17.75a1.4,1.4,0,0,0-.49-.08c-.43,0-.94.31-1.28,1.17v3.25h-.85Z" style="fill:#f1f0f0"/><path d="M40.26,123.17c1.29,0,2,.93,2,2.37a3,3,0,0,1,0,.47H38.83a1.68,1.68,0,0,0,1.69,1.78,2.28,2.28,0,0,0,1.26-.4l.3.56a3,3,0,0,1-1.67.52,2.67,2.67,0,0,1-.16-5.31Zm1.27,2.28c0-1-.46-1.6-1.25-1.6a1.58,1.58,0,0,0-1.46,1.6Z" style="fill:#f1f0f0"/></g><g style="opacity:0.800000011920929"><path d="M139.8,127.65h1.52v-4.89h-1.21v-.55a4,4,0,0,0,1.4-.49h.66v5.93h1.37v.71H139.8v-.71Z" style="fill:#f1f0f0"/><path d="M145,127.65h1.52v-4.89h-1.21v-.55a4,4,0,0,0,1.4-.49h.66v5.93h1.37v.71H145v-.71Z" style="fill:#f1f0f0"/><path d="M149.78,125c0-2.23.8-3.42,2.13-3.42S154,122.79,154,125s-.8,3.47-2.12,3.47S149.78,127.24,149.78,125Zm3.42,0c0-1.95-.52-2.74-1.29-2.74s-1.3.79-1.3,2.74.52,2.78,1.3,2.78S153.2,127,153.2,125Z" style="fill:#f1f0f0"/></g><g style="opacity:0.800000011920929"><path d="M23.66,155.67h1.71c2.1,0,3.23,1.22,3.23,3.38s-1.12,3.44-3.18,3.44H23.66Zm1.64,6.12c1.59,0,2.39-1,2.39-2.74s-.8-2.68-2.39-2.68h-.78v5.41Z" style="fill:#f1f0f0"/><path d="M31.88,157.32c1.29,0,2,.93,2,2.37a3,3,0,0,1,0,.47H30.45a1.68,1.68,0,0,0,1.69,1.78,2.28,2.28,0,0,0,1.26-.4l.3.56a3,3,0,0,1-1.67.52,2.67,2.67,0,0,1-.16-5.31Zm1.27,2.28c0-1-.46-1.6-1.25-1.6a1.58,1.58,0,0,0-1.46,1.6Z" style="fill:#f1f0f0"/><path d="M36,162.93v1.71h-.85v-7.19h.71l.07.58h0a2.61,2.61,0,0,1,1.61-.71c1.3,0,2,1,2,2.58s-1,2.73-2.19,2.73A2.35,2.35,0,0,1,36,162Zm1.24-1c.83,0,1.45-.76,1.45-2S38.31,158,37.35,158a2.12,2.12,0,0,0-1.35.69v2.65A2,2,0,0,0,37.24,161.91Z" style="fill:#f1f0f0"/><path d="M41.07,158.14h-.75v-.65l.79-.05.1-1.41h.72v1.41H43.3v.7H41.93V161c0,.62.2,1,.78,1a1.83,1.83,0,0,0,.57-.14l.17.65a3.12,3.12,0,0,1-.94.19c-1.08,0-1.45-.69-1.45-1.69v-2.8Z" style="fill:#f1f0f0"/><path d="M45,161.32a.66.66,0,1,1-.62.67A.63.63,0,0,1,45,161.32Z" style="fill:#f1f0f0"/><path d="M51.25,157.32A2.67,2.67,0,1,1,48.91,160,2.42,2.42,0,0,1,51.25,157.32Zm0,4.6c.87,0,1.46-.78,1.46-1.94s-.58-2-1.46-2-1.46.79-1.46,2S50.39,161.92,51.25,161.92Z" style="fill:#f1f0f0"/><path d="M57.2,155.79a1.43,1.43,0,0,0-.57-.12c-.48,0-.71.33-.71,1v.8H57v.7H55.92v4.36h-.85v-4.36h-.69v-.65l.69-.05v-.8c0-1,.47-1.68,1.48-1.68a2.29,2.29,0,0,1,.84.17Z" style="fill:#f1f0f0"/><path d="M61.57,156.4H59.51v-.73h5v.73H62.44v6.1h-.87v-6.1Z" style="fill:#f1f0f0"/><path d="M65.17,157.44h.71l.07.92h0a1.73,1.73,0,0,1,1.44-1,1.25,1.25,0,0,1,.54.1l-.17.75a1.4,1.4,0,0,0-.49-.08c-.43,0-.94.31-1.28,1.16v3.25h-.85Z" style="fill:#f1f0f0"/><path d="M71.38,159.3c0-.65-.22-1.27-1-1.27a2.73,2.73,0,0,0-1.51.54l-.34-.59a3.75,3.75,0,0,1,2-.65c1.24,0,1.76.82,1.76,2.08v3.1h-.71l-.07-.6h0a2.75,2.75,0,0,1-1.68.73,1.38,1.38,0,0,1-1.49-1.44C68.27,160.09,69.23,159.54,71.38,159.3ZM70,161.94a2.07,2.07,0,0,0,1.38-.68v-1.4c-1.7.21-2.27.62-2.27,1.27A.78.78,0,0,0,70,161.94Z" style="fill:#f1f0f0"/><path d="M73.85,157.44h.71l.07.73h0a2.38,2.38,0,0,1,1.7-.85c1.06,0,1.54.69,1.54,2v3.21H77v-3.09c0-.95-.29-1.35-1-1.35s-.87.27-1.38.78v3.66h-.85Z" style="fill:#f1f0f0"/><path d="M79.41,161.36a2.27,2.27,0,0,0,1.49.6c.67,0,1-.35,1-.79s-.6-.75-1.15-1c-.72-.26-1.51-.6-1.51-1.46s.65-1.44,1.74-1.44a2.53,2.53,0,0,1,1.57.57l-.41.54A1.88,1.88,0,0,0,81,158c-.64,0-.93.34-.93.73s.55.65,1.12.87c.73.27,1.54.57,1.54,1.53s-.66,1.51-1.85,1.51a3,3,0,0,1-1.88-.7Z" style="fill:#f1f0f0"/><path d="M84.76,162.93v1.71h-.85v-7.19h.71l.07.58h0a2.61,2.61,0,0,1,1.61-.71c1.3,0,2,1,2,2.58s-1,2.73-2.18,2.73a2.35,2.35,0,0,1-1.4-.58Zm1.24-1c.83,0,1.45-.76,1.45-2S87.07,158,86.11,158a2.12,2.12,0,0,0-1.35.69v2.65A2,2,0,0,0,86,161.91Z" style="fill:#f1f0f0"/><path d="M91.65,157.32A2.67,2.67,0,1,1,89.31,160,2.42,2.42,0,0,1,91.65,157.32Zm0,4.6c.87,0,1.46-.78,1.46-1.94s-.58-2-1.46-2-1.46.79-1.46,2S90.79,161.92,91.65,161.92Z" style="fill:#f1f0f0"/><path d="M95.33,157.44H96l.07.92h0a1.73,1.73,0,0,1,1.44-1,1.25,1.25,0,0,1,.54.1l-.17.75a1.4,1.4,0,0,0-.49-.08c-.43,0-.94.31-1.28,1.16v3.25h-.85Z" style="fill:#f1f0f0"/><path d="M99.08,158.14h-.75v-.65l.79-.05.1-1.41h.72v1.41h1.36v.7H99.95V161c0,.62.2,1,.78,1a1.83,1.83,0,0,0,.57-.14l.17.65a3.12,3.12,0,0,1-.94.19c-1.08,0-1.45-.69-1.45-1.69v-2.8Z" style="fill:#f1f0f0"/><path d="M105.13,159.3c0-.65-.22-1.27-1-1.27a2.73,2.73,0,0,0-1.51.54l-.34-.59a3.75,3.75,0,0,1,2-.65c1.24,0,1.76.82,1.76,2.08v3.1h-.71l-.07-.6h0a2.75,2.75,0,0,1-1.68.73,1.38,1.38,0,0,1-1.49-1.44C102,160.09,103,159.54,105.13,159.3Zm-1.38,2.64a2.07,2.07,0,0,0,1.38-.68v-1.4c-1.7.21-2.27.62-2.27,1.27A.77.77,0,0,0,103.75,161.94Z" style="fill:#f1f0f0"/><path d="M107.75,158.14H107v-.65l.79-.05.1-1.41h.72v1.41H110v.7h-1.36V161c0,.62.2,1,.78,1a1.83,1.83,0,0,0,.57-.14l.17.65a3.12,3.12,0,0,1-.94.19c-1.08,0-1.45-.69-1.45-1.69Z" style="fill:#f1f0f0"/><path d="M111,155.85a.59.59,0,0,1,1.19,0,.59.59,0,0,1-1.19,0Zm.16,1.59H112v5.06h-.85Z" style="fill:#f1f0f0"/><path d="M115.65,157.32A2.67,2.67,0,1,1,113.3,160,2.42,2.42,0,0,1,115.65,157.32Zm0,4.6c.87,0,1.46-.78,1.46-1.94s-.58-2-1.46-2-1.46.79-1.46,2S114.78,161.92,115.65,161.92Z" style="fill:#f1f0f0"/><path d="M119.32,157.44H120l.07.73h0a2.38,2.38,0,0,1,1.7-.85c1.06,0,1.54.69,1.54,2v3.21h-.85v-3.09c0-.95-.29-1.35-1-1.35s-.87.27-1.38.78v3.66h-.85Z" style="fill:#f1f0f0"/><path d="M23.66,171.29H27.6V172H24.53v2.31h2.6v.73h-2.6v3.06h-.86Z" style="fill:#f1f0f0"/><path d="M30.47,172.93c1.29,0,2,.93,2,2.37a3,3,0,0,1,0,.47H29a1.68,1.68,0,0,0,1.69,1.78,2.28,2.28,0,0,0,1.26-.4l.3.56a3,3,0,0,1-1.66.52,2.67,2.67,0,0,1-.16-5.31Zm1.27,2.28c0-1-.46-1.6-1.25-1.6a1.58,1.58,0,0,0-1.46,1.6Z" style="fill:#f1f0f0"/><path d="M35.57,172.93a2.08,2.08,0,0,1,1.42.58l0-.86v-1.95h.86v7.41H37.1l-.07-.59h0a2.28,2.28,0,0,1-1.53.72c-1.27,0-2.09-1-2.09-2.64A2.39,2.39,0,0,1,35.57,172.93Zm.08,4.59a1.71,1.71,0,0,0,1.29-.7v-2.64a1.76,1.76,0,0,0-1.23-.53c-.81,0-1.46.78-1.46,1.94S34.77,177.52,35.66,177.52Z" style="fill:#f1f0f0"/><path d="M41.41,172.93c1.29,0,2,.93,2,2.37a3,3,0,0,1,0,.47H40a1.68,1.68,0,0,0,1.69,1.78,2.28,2.28,0,0,0,1.26-.4l.3.56a3,3,0,0,1-1.67.52,2.67,2.67,0,0,1-.16-5.31Zm1.27,2.28c0-1-.46-1.6-1.25-1.6a1.58,1.58,0,0,0-1.46,1.6Z" style="fill:#f1f0f0"/><path d="M44.68,173.06h.71l.07.92h0a1.73,1.73,0,0,1,1.44-1,1.25,1.25,0,0,1,.54.1l-.17.75a1.4,1.4,0,0,0-.49-.08c-.43,0-.94.31-1.28,1.16v3.25h-.85Z" style="fill:#f1f0f0"/><path d="M50.9,174.91c0-.65-.22-1.27-1-1.27a2.73,2.73,0,0,0-1.51.54l-.34-.59a3.75,3.75,0,0,1,2-.65c1.24,0,1.76.82,1.76,2.08v3.1H51l-.07-.6h0a2.75,2.75,0,0,1-1.67.73,1.38,1.38,0,0,1-1.49-1.44C47.78,175.7,48.74,175.15,50.9,174.91Zm-1.38,2.64a2.07,2.07,0,0,0,1.38-.68v-1.4c-1.7.21-2.27.62-2.27,1.27A.77.77,0,0,0,49.51,177.55Z" style="fill:#f1f0f0"/><path d="M53.36,170.71h.85v6.45c0,.27.12.38.24.38a.72.72,0,0,0,.19,0l.11.65a1.13,1.13,0,0,1-.49.08c-.65,0-.9-.41-.9-1.15Z" style="fill:#f1f0f0"/><path d="M58.2,171.29h.86v2.86h3.17v-2.86h.88v6.83h-.87V174.9H59.07v3.22H58.2Z" style="fill:#f1f0f0"/><path d="M64.75,171.47a.59.59,0,0,1,1.19,0,.59.59,0,0,1-1.19,0Zm.16,1.59h.85v5.06h-.85Z" style="fill:#f1f0f0"/><path d="M67.82,177.94v0a.93.93,0,0,1-.45-.82,1.19,1.19,0,0,1,.55-.94v0a1.79,1.79,0,0,1,1.25-3.16,2,2,0,0,1,.72.13h1.76v.65h-1a1.47,1.47,0,0,1,.42,1,1.74,1.74,0,0,1-1.85,1.76,1.76,1.76,0,0,1-.76-.18.76.76,0,0,0-.32.6c0,.32.21.55.89.55h1c1.18,0,1.77.36,1.77,1.21s-1,1.75-2.56,1.75c-1.24,0-2.09-.49-2.09-1.36A1.46,1.46,0,0,1,67.82,177.94Zm1.48,1.91c1,0,1.6-.5,1.6-1s-.36-.62-1-.62H69a2.48,2.48,0,0,1-.66-.08,1.07,1.07,0,0,0-.52.85C67.83,179.51,68.39,179.85,69.3,179.85Zm.95-5.12a1.08,1.08,0,1,0-2.14,0,1.08,1.08,0,1,0,2.14,0Z" style="fill:#f1f0f0"/><path d="M72.72,170.71h.85v2l0,1a2.42,2.42,0,0,1,1.69-.83c1.06,0,1.54.69,1.54,2v3.21h-.85V175c0-.95-.29-1.35-1-1.35s-.87.27-1.38.78v3.66h-.85Z" style="fill:#f1f0f0"/><path d="M77.78,173.06h.87L79.4,176c.11.48.21.94.3,1.4h0c.11-.47.22-.94.34-1.4l.78-2.92h.83l.79,2.92c.13.48.24.94.35,1.4h0c.11-.47.21-.93.31-1.4l.74-2.92h.81l-1.35,5.06h-1l-.73-2.72c-.12-.48-.22-.95-.34-1.46h0c-.11.51-.22,1-.35,1.47l-.71,2.71h-1Z" style="fill:#f1f0f0"/><path d="M88.61,174.91c0-.65-.22-1.27-1-1.27a2.73,2.73,0,0,0-1.51.54l-.34-.59a3.75,3.75,0,0,1,2-.65c1.24,0,1.76.82,1.76,2.08v3.1h-.71l-.07-.6h0a2.75,2.75,0,0,1-1.68.73,1.38,1.38,0,0,1-1.49-1.44C85.5,175.7,86.46,175.15,88.61,174.91Zm-1.38,2.64a2.07,2.07,0,0,0,1.38-.68v-1.4c-1.7.21-2.27.62-2.27,1.27A.77.77,0,0,0,87.23,177.55Z" style="fill:#f1f0f0"/><path d="M91.12,179.58c.57,0,.94-.46,1.14-1.08l.11-.37-2-5.07h.88l1,2.8c.16.44.33,1,.49,1.43h0c.15-.46.29-1,.43-1.43l.9-2.8H95l-1.9,5.47c-.35,1-.87,1.76-1.89,1.76a1.69,1.69,0,0,1-.59-.1l.17-.68A1.51,1.51,0,0,0,91.12,179.58Z" style="fill:#f1f0f0"/><path d="M101.25,176H98.76l-.66,2.08h-.88l2.31-6.83h1l2.31,6.83h-.93Zm-.22-.7-.32-1c-.25-.76-.47-1.51-.69-2.3h0c-.21.79-.43,1.54-.68,2.3l-.32,1Z" style="fill:#f1f0f0"/><path d="M105.54,172.93a2.08,2.08,0,0,1,1.42.58l0-.86v-1.95h.86v7.41h-.71l-.07-.59h0a2.28,2.28,0,0,1-1.53.72c-1.27,0-2.09-1-2.09-2.64A2.4,2.4,0,0,1,105.54,172.93Zm.08,4.59a1.71,1.71,0,0,0,1.29-.7v-2.64a1.76,1.76,0,0,0-1.23-.53c-.81,0-1.46.78-1.46,1.94S104.74,177.52,105.62,177.52Z" style="fill:#f1f0f0"/><path d="M109.49,173.06h.71l.07.73h0a2.22,2.22,0,0,1,1.57-.85,1.33,1.33,0,0,1,1.39,1,2.39,2.39,0,0,1,1.67-1c1,0,1.54.69,1.54,2v3.21h-.85V175c0-.95-.3-1.35-.94-1.35a1.86,1.86,0,0,0-1.27.78v3.66h-.85V175c0-.95-.3-1.35-.95-1.35a1.9,1.9,0,0,0-1.27.78v3.66h-.85v-5.06Z" style="fill:#f1f0f0"/><path d="M118,171.47a.59.59,0,0,1,1.19,0,.59.59,0,0,1-1.19,0Zm.16,1.59H119v5.06h-.85Z" style="fill:#f1f0f0"/><path d="M120.68,173.06h.71l.07.73h0a2.38,2.38,0,0,1,1.7-.85c1.06,0,1.54.69,1.54,2v3.21h-.85V175c0-.95-.29-1.35-1-1.35s-.87.27-1.38.78v3.66h-.85Z" style="fill:#f1f0f0"/><path d="M126.82,176.93a.66.66,0,1,1-.62.67A.63.63,0,0,1,126.82,176.93Z" style="fill:#f1f0f0"/></g><g style="opacity:0.800000011920929"><path d="M139.68,161.13a2.26,2.26,0,0,0,1.7.79,1.24,1.24,0,0,0,1.37-1.22c0-.79-.54-1.32-2.12-1.32v-.65c1.41,0,1.88-.54,1.88-1.24a1,1,0,0,0-1.15-1.05,2,2,0,0,0-1.42.68l-.46-.54a2.73,2.73,0,0,1,1.9-.83c1.15,0,2,.61,2,1.69a1.64,1.64,0,0,1-1.21,1.58v0a1.71,1.71,0,0,1,1.44,1.69,2,2,0,0,1-2.18,1.9,2.82,2.82,0,0,1-2.19-.94Z" style="fill:#f1f0f0"/><path d="M144.61,159.16c0-2.23.8-3.42,2.13-3.42s2.12,1.2,2.12,3.42-.8,3.47-2.12,3.47S144.61,161.39,144.61,159.16Zm3.42,0c0-1.95-.52-2.74-1.29-2.74s-1.3.79-1.3,2.74.52,2.78,1.3,2.78S148,161.11,148,159.16Z" style="fill:#f1f0f0"/><path d="M149.78,159.16c0-2.23.8-3.42,2.13-3.42s2.12,1.2,2.12,3.42-.8,3.47-2.12,3.47S149.78,161.39,149.78,159.16Zm3.42,0c0-1.95-.52-2.74-1.29-2.74s-1.3.79-1.3,2.74.52,2.78,1.3,2.78S153.2,161.11,153.2,159.16Z" style="fill:#f1f0f0"/></g><g style="opacity:0.800000011920929"><path d="M23.66,205.59H27.6v.73H24.53v2.31h2.6v.73h-2.6v3.06h-.86Z" style="fill:#f1f0f0"/><path d="M28.81,205.59h1.71c2.1,0,3.23,1.22,3.23,3.38s-1.12,3.44-3.18,3.44H28.81Zm1.64,6.12c1.59,0,2.39-1,2.39-2.74s-.8-2.68-2.39-2.68h-.78v5.41h.78Z" style="fill:#f1f0f0"/><path d="M35.21,205.59h.86v6.83h-.86Z" style="fill:#f1f0f0"/><path d="M40.59,205.47a2.49,2.49,0,0,1,1.86.84l-.49.55a1.79,1.79,0,0,0-1.36-.63c-1.3,0-2.15,1.06-2.15,2.76s.82,2.8,2.11,2.8a2,2,0,0,0,1.57-.76l.49.53a2.64,2.64,0,0,1-2.08,1c-1.72,0-3-1.31-3-3.54S38.84,205.47,40.59,205.47Z" style="fill:#f1f0f0"/></g><g style="opacity:0.800000011920929"><path d="M140,211.31a1.46,1.46,0,0,0,1.09.53c.94,0,1.73-.73,1.76-2.85a2.08,2.08,0,0,1-1.56.85,1.79,1.79,0,0,1-1.88-2.05,2,2,0,0,1,2-2.13c1.31,0,2.29,1.06,2.29,3.2,0,2.66-1.21,3.69-2.53,3.69a2.13,2.13,0,0,1-1.6-.7Zm2.83-3c-.11-1.29-.62-2-1.47-2-.65,0-1.15.58-1.15,1.46s.41,1.4,1.23,1.4A1.78,1.78,0,0,0,142.81,208.31Z" style="fill:#f1f0f0"/><path d="M144.61,209.08c0-2.23.8-3.42,2.13-3.42s2.12,1.2,2.12,3.42-.8,3.47-2.12,3.47S144.61,211.31,144.61,209.08Zm3.42,0c0-1.95-.52-2.74-1.29-2.74s-1.3.79-1.3,2.74.52,2.78,1.3,2.78S148,211,148,209.08Z" style="fill:#f1f0f0"/><path d="M149.78,209.08c0-2.23.8-3.42,2.13-3.42s2.12,1.2,2.12,3.42-.8,3.47-2.12,3.47S149.78,211.31,149.78,209.08Zm3.42,0c0-1.95-.52-2.74-1.29-2.74s-1.3.79-1.3,2.74.52,2.78,1.3,2.78S153.2,211,153.2,209.08Z" style="fill:#f1f0f0"/></g><g style="opacity:0.800000011920929"><path d="M23.66,243.29H27.6V244H24.53v2.31h2.6v.73h-2.6v3.06h-.86Z" style="fill:#f1f0f0"/><path d="M30.47,244.93c1.29,0,2,.93,2,2.37a3,3,0,0,1,0,.47H29a1.68,1.68,0,0,0,1.69,1.78,2.28,2.28,0,0,0,1.26-.4l.3.56a3,3,0,0,1-1.66.52,2.68,2.68,0,0,1-.16-5.31Zm1.27,2.28c0-1-.46-1.6-1.25-1.6a1.58,1.58,0,0,0-1.46,1.6Z" style="fill:#f1f0f0"/><path d="M35.57,244.93a2.08,2.08,0,0,1,1.42.58l0-.86v-1.95h.86v7.41H37.1l-.07-.59h0a2.28,2.28,0,0,1-1.53.72c-1.27,0-2.09-1-2.09-2.64A2.4,2.4,0,0,1,35.57,244.93Zm.08,4.59a1.71,1.71,0,0,0,1.29-.7v-2.64a1.76,1.76,0,0,0-1.23-.53c-.81,0-1.46.78-1.46,1.94S34.77,249.52,35.66,249.52Z" style="fill:#f1f0f0"/><path d="M41.41,244.93c1.29,0,2,.93,2,2.37a3,3,0,0,1,0,.47H40a1.68,1.68,0,0,0,1.69,1.78,2.28,2.28,0,0,0,1.26-.4l.3.56a3,3,0,0,1-1.67.52,2.68,2.68,0,0,1-.16-5.31Zm1.27,2.28c0-1-.46-1.6-1.25-1.6a1.58,1.58,0,0,0-1.46,1.6Z" style="fill:#f1f0f0"/><path d="M44.68,245.06h.71l.07.92h0a1.73,1.73,0,0,1,1.44-1,1.25,1.25,0,0,1,.54.1l-.17.75a1.42,1.42,0,0,0-.49-.08c-.43,0-.94.31-1.28,1.16v3.25h-.85Z" style="fill:#f1f0f0"/><path d="M50.9,246.91c0-.65-.22-1.27-1-1.27a2.73,2.73,0,0,0-1.51.54l-.34-.59a3.75,3.75,0,0,1,2-.66c1.24,0,1.76.82,1.76,2.08v3.1H51l-.07-.6h0a2.75,2.75,0,0,1-1.67.73,1.38,1.38,0,0,1-1.49-1.44C47.78,247.7,48.74,247.15,50.9,246.91Zm-1.38,2.64a2.07,2.07,0,0,0,1.38-.68v-1.4c-1.7.21-2.27.63-2.27,1.27A.78.78,0,0,0,49.51,249.56Z" style="fill:#f1f0f0"/><path d="M53.36,242.71h.85v6.45c0,.27.12.37.24.37a.72.72,0,0,0,.19,0l.11.65a1.15,1.15,0,0,1-.49.08c-.65,0-.9-.41-.9-1.15Z" style="fill:#f1f0f0"/><path d="M58.2,243.29h1L60.55,247l.5,1.4h0l.48-1.4,1.31-3.66h1v6.83h-.82v-3.76c0-.6.06-1.41.12-2h0l-.55,1.52-1.31,3.57H60.8l-1.32-3.57-.54-1.52h0c0,.6.11,1.41.11,2v3.76h-.8Z" style="fill:#f1f0f0"/><path d="M67.66,244.93a2.67,2.67,0,1,1-2.34,2.66A2.42,2.42,0,0,1,67.66,244.93Zm0,4.6c.87,0,1.46-.78,1.46-1.94s-.58-2-1.46-2-1.46.79-1.46,2S66.79,249.54,67.66,249.54Z" style="fill:#f1f0f0"/><path d="M71.48,245.76h-.75v-.65l.79-.05.1-1.41h.72v1.41H73.7v.7H72.34v2.81c0,.63.2,1,.78,1a1.83,1.83,0,0,0,.57-.14l.17.65a3.12,3.12,0,0,1-.94.19c-1.08,0-1.45-.69-1.45-1.69v-2.8Z" style="fill:#f1f0f0"/><path d="M76.71,244.93a2.67,2.67,0,1,1-2.34,2.66A2.42,2.42,0,0,1,76.71,244.93Zm0,4.6c.87,0,1.46-.78,1.46-1.94s-.58-2-1.46-2-1.46.79-1.46,2S75.85,249.54,76.71,249.54Z" style="fill:#f1f0f0"/><path d="M80.39,245.06h.71l.07.92h0a1.73,1.73,0,0,1,1.44-1,1.25,1.25,0,0,1,.54.1l-.17.75a1.42,1.42,0,0,0-.49-.08c-.43,0-.94.31-1.28,1.16v3.25h-.85Z" style="fill:#f1f0f0"/><path d="M88.83,243.17a2.49,2.49,0,0,1,1.86.84l-.49.55a1.79,1.79,0,0,0-1.36-.63c-1.3,0-2.15,1.06-2.15,2.76s.82,2.8,2.11,2.8a2,2,0,0,0,1.57-.76l.49.53a2.64,2.64,0,0,1-2.08,1c-1.72,0-3-1.31-3-3.54S87.08,243.17,88.83,243.17Z" style="fill:#f1f0f0"/><path d="M94.91,246.91c0-.65-.22-1.27-1-1.27a2.73,2.73,0,0,0-1.51.54l-.34-.59a3.75,3.75,0,0,1,2-.66c1.24,0,1.76.82,1.76,2.08v3.1h-.71l-.07-.6h0a2.75,2.75,0,0,1-1.68.73,1.38,1.38,0,0,1-1.49-1.44C91.8,247.7,92.76,247.15,94.91,246.91Zm-1.38,2.64a2.07,2.07,0,0,0,1.38-.68v-1.4c-1.7.21-2.27.63-2.27,1.27A.78.78,0,0,0,93.53,249.56Z" style="fill:#f1f0f0"/><path d="M97.38,245.06h.71l.07.92h0a1.73,1.73,0,0,1,1.44-1,1.25,1.25,0,0,1,.54.1l-.17.75a1.42,1.42,0,0,0-.49-.08c-.43,0-.94.31-1.28,1.16v3.25h-.85Z" style="fill:#f1f0f0"/><path d="M101,245.06h.71l.07.92h0a1.73,1.73,0,0,1,1.44-1,1.25,1.25,0,0,1,.54.1l-.17.75a1.42,1.42,0,0,0-.49-.08c-.43,0-.94.31-1.28,1.16v3.25H101Z" style="fill:#f1f0f0"/><path d="M104.45,243.47a.59.59,0,0,1,1.19,0,.59.59,0,0,1-1.19,0Zm.16,1.59h.85v5.06h-.85Z" style="fill:#f1f0f0"/><path d="M109.06,244.93c1.29,0,2,.93,2,2.37a3,3,0,0,1,0,.47h-3.41a1.68,1.68,0,0,0,1.69,1.78,2.28,2.28,0,0,0,1.26-.4l.3.56a3,3,0,0,1-1.67.52,2.68,2.68,0,0,1-.16-5.31Zm1.27,2.28c0-1-.46-1.6-1.25-1.6a1.58,1.58,0,0,0-1.46,1.6Z" style="fill:#f1f0f0"/><path d="M112.33,245.06H113l.07.92h0a1.73,1.73,0,0,1,1.44-1,1.25,1.25,0,0,1,.54.1l-.17.75a1.42,1.42,0,0,0-.49-.08c-.43,0-.94.31-1.28,1.16v3.25h-.85Z" style="fill:#f1f0f0"/><path d="M23.69,264.24a2.67,2.67,0,0,0,1.88.85c.9,0,1.43-.45,1.43-1.11s-.49-.92-1.13-1.21l-1-.43a1.92,1.92,0,0,1-1.38-1.76,1.94,1.94,0,0,1,2.14-1.81,2.83,2.83,0,0,1,2,.84l-.47.56a2.17,2.17,0,0,0-1.55-.64c-.76,0-1.27.39-1.27,1s.59.9,1.13,1.13l1,.42a1.9,1.9,0,0,1,1.41,1.82,2.06,2.06,0,0,1-2.32,1.95,3.31,3.31,0,0,1-2.39-1Z" style="fill:#f1f0f0"/><path d="M32,262.53c0-.65-.22-1.27-1-1.27a2.73,2.73,0,0,0-1.51.54l-.34-.59a3.75,3.75,0,0,1,2-.66c1.24,0,1.76.82,1.76,2.08v3.1h-.71l-.07-.6h0a2.75,2.75,0,0,1-1.67.73,1.38,1.38,0,0,1-1.49-1.44C28.89,263.32,29.85,262.77,32,262.53Zm-1.39,2.64a2.07,2.07,0,0,0,1.38-.68v-1.4c-1.7.21-2.27.63-2.27,1.27A.78.78,0,0,0,30.62,265.17Z" style="fill:#f1f0f0"/><path d="M36.75,259a1.41,1.41,0,0,0-.57-.12c-.48,0-.71.33-.71,1v.8h1.07v.7H35.47v4.36h-.85v-4.36h-.69v-.65l.69-.05v-.8c0-1,.47-1.68,1.48-1.68a2.29,2.29,0,0,1,.84.17Z" style="fill:#f1f0f0"/><path d="M39.3,260.55c1.29,0,2,.93,2,2.37a3,3,0,0,1,0,.47H37.87a1.68,1.68,0,0,0,1.69,1.78,2.28,2.28,0,0,0,1.26-.4l.3.56a3,3,0,0,1-1.67.52,2.68,2.68,0,0,1-.16-5.31Zm1.27,2.28c0-1-.46-1.6-1.25-1.6a1.58,1.58,0,0,0-1.46,1.6Z" style="fill:#f1f0f0"/><path d="M42.57,261.37h-.75v-.65l.79-.05.1-1.42h.72v1.42H44.8v.7H43.43v2.81c0,.63.2,1,.78,1a1.83,1.83,0,0,0,.57-.14l.17.65a3.12,3.12,0,0,1-.94.19c-1.08,0-1.45-.69-1.45-1.69v-2.8Z" style="fill:#f1f0f0"/><path d="M46,267.2c.57,0,.94-.46,1.15-1.08l.12-.37-2-5.07h.88l1,2.8c.16.44.33,1,.49,1.43h0c.15-.46.29-1,.43-1.43l.9-2.8h.83l-1.9,5.47c-.35,1-.87,1.76-1.89,1.76a1.66,1.66,0,0,1-.59-.1l.17-.68A1.46,1.46,0,0,0,46,267.2Z" style="fill:#f1f0f0"/><path d="M56.11,263.65H53.62L53,265.73h-.88l2.31-6.83h1l2.31,6.83h-.93Zm-.22-.7-.32-1c-.25-.76-.47-1.51-.69-2.3h0c-.21.79-.43,1.54-.68,2.3l-.32,1Z" style="fill:#f1f0f0"/><path d="M60.4,260.55a2.08,2.08,0,0,1,1.42.58l0-.86v-1.95h.86v7.41h-.71l-.07-.59h0a2.28,2.28,0,0,1-1.53.72c-1.27,0-2.09-1-2.09-2.64A2.4,2.4,0,0,1,60.4,260.55Zm.08,4.59a1.72,1.72,0,0,0,1.29-.7V261.8a1.76,1.76,0,0,0-1.23-.53c-.81,0-1.46.78-1.46,1.94S59.6,265.14,60.48,265.14Z" style="fill:#f1f0f0"/><path d="M64.35,260.67h.71l.07.73h0a2.22,2.22,0,0,1,1.57-.85,1.33,1.33,0,0,1,1.39,1,2.39,2.39,0,0,1,1.67-1c1,0,1.54.69,1.54,2v3.2h-.85v-3.09c0-.95-.3-1.35-.94-1.35a1.86,1.86,0,0,0-1.27.78v3.66h-.85v-3.09c0-.95-.3-1.35-.95-1.35a1.9,1.9,0,0,0-1.27.78v3.66h-.85v-5.06Z" style="fill:#f1f0f0"/><path d="M72.82,259.08a.59.59,0,0,1,1.19,0,.59.59,0,0,1-1.19,0Zm.16,1.59h.85v5.06H73Z" style="fill:#f1f0f0"/><path d="M75.54,260.67h.71l.07.73h0a2.38,2.38,0,0,1,1.7-.85c1.06,0,1.54.69,1.54,2v3.2h-.85v-3.09c0-.95-.29-1.35-1-1.35s-.87.27-1.38.78v3.66h-.85Z" style="fill:#f1f0f0"/><path d="M81.08,259.08a.59.59,0,0,1,1.19,0,.59.59,0,0,1-1.19,0Zm.16,1.59h.85v5.06h-.85Z" style="fill:#f1f0f0"/><path d="M83.66,264.59a2.27,2.27,0,0,0,1.49.6c.67,0,1-.35,1-.79s-.6-.75-1.15-1c-.72-.26-1.51-.6-1.51-1.46s.65-1.44,1.74-1.44a2.53,2.53,0,0,1,1.57.57l-.41.54a1.88,1.88,0,0,0-1.15-.45c-.64,0-.93.34-.93.73s.55.65,1.12.87c.73.27,1.54.57,1.54,1.53s-.66,1.51-1.85,1.51a3,3,0,0,1-1.88-.7Z" style="fill:#f1f0f0"/><path d="M88.3,261.37h-.75v-.65l.79-.05.1-1.42h.72v1.42h1.36v.7H89.16v2.81c0,.63.2,1,.78,1a1.83,1.83,0,0,0,.57-.14l.17.65a3.12,3.12,0,0,1-.94.19c-1.08,0-1.45-.69-1.45-1.69v-2.8Z" style="fill:#f1f0f0"/><path d="M91.67,260.67h.71l.07.92h0a1.73,1.73,0,0,1,1.44-1,1.25,1.25,0,0,1,.54.1l-.17.75a1.42,1.42,0,0,0-.49-.08c-.43,0-.94.31-1.28,1.17v3.25h-.85Z" style="fill:#f1f0f0"/><path d="M97.89,262.53c0-.65-.22-1.27-1-1.27a2.73,2.73,0,0,0-1.51.54l-.34-.59a3.75,3.75,0,0,1,2-.66c1.24,0,1.76.82,1.76,2.08v3.1H98l-.07-.6h0a2.75,2.75,0,0,1-1.68.73,1.38,1.38,0,0,1-1.49-1.44C94.78,263.32,95.73,262.77,97.89,262.53Zm-1.38,2.64a2.07,2.07,0,0,0,1.38-.68v-1.4c-1.7.21-2.27.63-2.27,1.27A.78.78,0,0,0,96.5,265.17Z" style="fill:#f1f0f0"/><path d="M100.5,261.37h-.75v-.65l.79-.05.1-1.42h.72v1.42h1.36v.7h-1.36v2.81c0,.63.2,1,.78,1a1.83,1.83,0,0,0,.57-.14l.17.65a3.12,3.12,0,0,1-.94.19c-1.08,0-1.45-.69-1.45-1.69v-2.8Z" style="fill:#f1f0f0"/><path d="M103.72,259.08a.59.59,0,0,1,1.19,0,.59.59,0,0,1-1.19,0Zm.16,1.59h.85v5.06h-.85Z" style="fill:#f1f0f0"/><path d="M108.4,260.55a2.67,2.67,0,1,1-2.34,2.66A2.42,2.42,0,0,1,108.4,260.55Zm0,4.6c.87,0,1.46-.78,1.46-1.94s-.58-2-1.46-2-1.46.79-1.46,2S107.54,265.15,108.4,265.15Z" style="fill:#f1f0f0"/><path d="M112.08,260.67h.71l.07.73h0a2.38,2.38,0,0,1,1.7-.85c1.06,0,1.54.69,1.54,2v3.2h-.85v-3.09c0-.95-.29-1.35-1-1.35s-.87.27-1.38.78v3.66h-.85Z" style="fill:#f1f0f0"/><path d="M117.41,267a1.4,1.4,0,0,0,.94-1.27h-.1a.57.57,0,0,1-.61-.59.6.6,0,0,1,.64-.6c.45,0,.72.39.72,1a2.07,2.07,0,0,1-1.36,1.95Z" style="fill:#f1f0f0"/><path d="M23.66,274.52h.9L27,278.81l.74,1.42h0c0-.69-.1-1.46-.1-2.17v-3.53h.82v6.83h-.9L25.15,277l-.74-1.4h0c.05.69.11,1.42.11,2.13v3.57h-.82Z" style="fill:#f1f0f0"/><path d="M33.18,278.14c0-.65-.22-1.27-1-1.27a2.73,2.73,0,0,0-1.51.54l-.34-.59a3.75,3.75,0,0,1,2-.66c1.24,0,1.76.82,1.76,2.08v3.1h-.71l-.07-.6h0a2.75,2.75,0,0,1-1.67.73A1.38,1.38,0,0,1,30.07,280C30.07,278.93,31,278.38,33.18,278.14Zm-1.38,2.64a2.07,2.07,0,0,0,1.38-.68v-1.4c-1.7.21-2.27.63-2.27,1.27A.78.78,0,0,0,31.79,280.79Z" style="fill:#f1f0f0"/><path d="M35.79,277H35v-.65l.79-.05.1-1.42h.72v1.42H38v.7H36.66v2.81c0,.63.2,1,.78,1a1.83,1.83,0,0,0,.57-.14l.17.65a3.12,3.12,0,0,1-.94.19c-1.08,0-1.45-.69-1.45-1.69Z" style="fill:#f1f0f0"/><path d="M39,274.7a.59.59,0,0,1,1.19,0,.59.59,0,0,1-1.19,0Zm.16,1.59H40v5.06h-.85Z" style="fill:#f1f0f0"/><path d="M43.69,276.17a2.67,2.67,0,1,1-2.34,2.66A2.42,2.42,0,0,1,43.69,276.17Zm0,4.6c.87,0,1.46-.78,1.46-1.94s-.58-2-1.46-2-1.46.79-1.46,2S42.83,280.77,43.69,280.77Z" style="fill:#f1f0f0"/><path d="M47.37,276.29h.71l.07.73h0a2.38,2.38,0,0,1,1.7-.85c1.06,0,1.54.69,1.54,2v3.2h-.85v-3.09c0-.95-.29-1.35-1-1.35s-.87.27-1.38.78v3.66h-.85Z" style="fill:#f1f0f0"/><path d="M55.92,278.14c0-.65-.22-1.27-1-1.27a2.73,2.73,0,0,0-1.51.54l-.34-.59a3.75,3.75,0,0,1,2-.66c1.24,0,1.76.82,1.76,2.08v3.1h-.71l-.07-.6h0a2.75,2.75,0,0,1-1.67.73A1.38,1.38,0,0,1,52.81,280C52.81,278.93,53.77,278.38,55.92,278.14Zm-1.38,2.64a2.07,2.07,0,0,0,1.38-.68v-1.4c-1.7.21-2.27.63-2.27,1.27A.78.78,0,0,0,54.54,280.79Z" style="fill:#f1f0f0"/><path d="M58.39,273.94h.85v6.45c0,.27.12.37.24.37a.72.72,0,0,0,.19,0l.12.65a1.15,1.15,0,0,1-.49.08c-.65,0-.9-.41-.9-1.14v-6.39Z" style="fill:#f1f0f0"/><path d="M64.65,275.25H62.59v-.73h5v.73H65.52v6.1h-.87v-6.1Z" style="fill:#f1f0f0"/><path d="M68.25,276.29H69l.07.92h0a1.73,1.73,0,0,1,1.44-1,1.25,1.25,0,0,1,.54.1l-.17.75a1.42,1.42,0,0,0-.49-.08c-.43,0-.94.31-1.28,1.17v3.25h-.85Z" style="fill:#f1f0f0"/><path d="M74.46,278.14c0-.65-.22-1.27-1-1.27a2.73,2.73,0,0,0-1.51.54l-.34-.59a3.75,3.75,0,0,1,2-.66c1.24,0,1.76.82,1.76,2.08v3.1h-.71l-.07-.6h0a2.75,2.75,0,0,1-1.68.73A1.38,1.38,0,0,1,71.35,280C71.35,278.93,72.31,278.38,74.46,278.14Zm-1.38,2.64a2.07,2.07,0,0,0,1.38-.68v-1.4c-1.7.21-2.27.63-2.27,1.27A.78.78,0,0,0,73.08,280.79Z" style="fill:#f1f0f0"/><path d="M76.78,274.7a.59.59,0,0,1,1.19,0,.59.59,0,0,1-1.19,0Zm.16,1.59h.85v5.06h-.85Z" style="fill:#f1f0f0"/><path d="M79.49,276.29h.71l.07.73h0a2.38,2.38,0,0,1,1.7-.85c1.06,0,1.54.69,1.54,2v3.2h-.85v-3.09c0-.95-.29-1.35-1-1.35s-.87.27-1.38.78v3.66h-.85v-5.06Z" style="fill:#f1f0f0"/><path d="M85,274.7a.59.59,0,0,1,1.19,0,.59.59,0,0,1-1.19,0Zm.16,1.59H86v5.06h-.85Z" style="fill:#f1f0f0"/><path d="M87.75,276.29h.71l.07.73h0a2.38,2.38,0,0,1,1.7-.85c1.06,0,1.54.69,1.54,2v3.2h-.85v-3.09c0-.95-.29-1.35-1-1.35s-.87.27-1.38.78v3.66h-.85Z" style="fill:#f1f0f0"/><path d="M93.8,281.17v0a.93.93,0,0,1-.45-.82,1.19,1.19,0,0,1,.55-.94v0a1.79,1.79,0,0,1,1.25-3.16,2,2,0,0,1,.72.13h1.76v.65h-1a1.47,1.47,0,0,1,.42,1,1.74,1.74,0,0,1-1.85,1.76,1.76,1.76,0,0,1-.76-.18.77.77,0,0,0-.32.6c0,.32.21.55.89.55h1c1.18,0,1.77.36,1.77,1.21s-1,1.75-2.56,1.75c-1.24,0-2.09-.49-2.09-1.36A1.46,1.46,0,0,1,93.8,281.17Zm1.48,1.92c1,0,1.6-.5,1.6-1s-.36-.62-1-.62H95a2.48,2.48,0,0,1-.66-.08,1.07,1.07,0,0,0-.52.85C93.81,282.74,94.36,283.09,95.27,283.09Zm.95-5.12a1.08,1.08,0,1,0-2.14,0,1.08,1.08,0,1,0,2.14,0Z" style="fill:#f1f0f0"/><path d="M103.52,274.4a2.48,2.48,0,0,1,1.86.84l-.49.55a1.79,1.79,0,0,0-1.36-.64c-1.3,0-2.15,1.06-2.15,2.76s.82,2.8,2.11,2.8a2,2,0,0,0,1.57-.76l.49.53a2.64,2.64,0,0,1-2.08,1c-1.72,0-3-1.31-3-3.54S101.77,274.4,103.52,274.4Z" style="fill:#f1f0f0"/><path d="M108.63,276.17c1.29,0,2,.93,2,2.37a3,3,0,0,1,0,.47H107.2a1.68,1.68,0,0,0,1.69,1.78,2.28,2.28,0,0,0,1.26-.4l.3.56a3,3,0,0,1-1.67.52,2.68,2.68,0,0,1-.16-5.31Zm1.27,2.28c0-1-.46-1.6-1.25-1.6a1.58,1.58,0,0,0-1.46,1.6Z" style="fill:#f1f0f0"/><path d="M111.9,276.29h.71l.07.73h0a2.38,2.38,0,0,1,1.7-.85c1.06,0,1.54.69,1.54,2v3.2h-.85v-3.09c0-.95-.29-1.35-1-1.35s-.87.27-1.38.78v3.66h-.85Z" style="fill:#f1f0f0"/><path d="M117.74,277H117v-.65l.79-.05.1-1.42h.72v1.42H120v.7H118.6v2.81c0,.63.2,1,.78,1a1.83,1.83,0,0,0,.57-.14l.17.65a3.12,3.12,0,0,1-.94.19c-1.08,0-1.45-.69-1.45-1.69V277Z" style="fill:#f1f0f0"/><path d="M122.9,276.17c1.29,0,2,.93,2,2.37a3,3,0,0,1,0,.47h-3.41a1.68,1.68,0,0,0,1.69,1.78,2.28,2.28,0,0,0,1.26-.4l.3.56a3,3,0,0,1-1.67.52,2.68,2.68,0,0,1-.16-5.31Zm1.27,2.28c0-1-.46-1.6-1.25-1.6a1.58,1.58,0,0,0-1.46,1.6Z" style="fill:#f1f0f0"/><path d="M126.17,276.29h.71l.07.92h0a1.73,1.73,0,0,1,1.44-1,1.25,1.25,0,0,1,.54.1l-.17.75a1.42,1.42,0,0,0-.49-.08c-.43,0-.94.31-1.28,1.17v3.25h-.85Z" style="fill:#f1f0f0"/></g><g style="opacity:0.800000011920929"><path d="M143.13,244.59a1.45,1.45,0,0,0-1.09-.52c-.93,0-1.71.72-1.75,2.82a2.12,2.12,0,0,1,1.55-.83,1.8,1.8,0,0,1,1.89,2.05,2,2,0,0,1-2,2.13c-1.3,0-2.29-1.06-2.29-3.2,0-2.66,1.21-3.69,2.53-3.69a2.1,2.1,0,0,1,1.6.71Zm-.21,3.52c0-.86-.41-1.4-1.23-1.4a1.8,1.8,0,0,0-1.38.87c.1,1.29.61,2,1.46,2C142.42,249.57,142.92,249,142.92,248.11Z" style="fill:#f1f0f0"/><path d="M144.61,246.78c0-2.23.8-3.42,2.13-3.42s2.12,1.2,2.12,3.42-.8,3.47-2.12,3.47S144.61,249,144.61,246.78Zm3.42,0c0-1.95-.52-2.74-1.29-2.74s-1.3.79-1.3,2.74.52,2.78,1.3,2.78S148,248.72,148,246.78Z" style="fill:#f1f0f0"/><path d="M149.78,246.78c0-2.23.8-3.42,2.13-3.42s2.12,1.2,2.12,3.42-.8,3.47-2.12,3.47S149.78,249,149.78,246.78Zm3.42,0c0-1.95-.52-2.74-1.29-2.74s-1.3.79-1.3,2.74.52,2.78,1.3,2.78S153.2,248.72,153.2,246.78Z" style="fill:#f1f0f0"/></g><g style="opacity:0.800000011920929"><path d="M26.41,307.41a2.61,2.61,0,0,1,2,.84l-.49.55a1.87,1.87,0,0,0-1.46-.64c-1.37,0-2.26,1.06-2.26,2.76s.81,2.8,2.27,2.8a1.87,1.87,0,0,0,1.23-.41v-1.78H26.21v-.72h2.24v2.87a3,3,0,0,1-2.11.79c-1.79,0-3.07-1.31-3.07-3.54S24.59,307.41,26.41,307.41Z" style="fill:#f1f0f0"/><path d="M32,309.18a2.67,2.67,0,1,1-2.34,2.66A2.42,2.42,0,0,1,32,309.18Zm0,4.6c.87,0,1.46-.78,1.46-1.94s-.58-2-1.46-2-1.46.79-1.46,2S31.11,313.78,32,313.78Z" style="fill:#f1f0f0"/><path d="M35.65,307h.85v6.45c0,.27.12.37.24.37a.72.72,0,0,0,.19,0l.11.65a1.15,1.15,0,0,1-.49.08c-.65,0-.9-.41-.9-1.14Z" style="fill:#f1f0f0"/><path d="M40.13,309.18a2.08,2.08,0,0,1,1.42.58l0-.86V307h.86v7.41h-.71l-.07-.59h0a2.28,2.28,0,0,1-1.53.72c-1.27,0-2.09-1-2.09-2.64A2.4,2.4,0,0,1,40.13,309.18Zm.08,4.59a1.72,1.72,0,0,0,1.29-.7v-2.64a1.76,1.76,0,0,0-1.23-.53c-.81,0-1.46.78-1.46,1.94S39.33,313.77,40.22,313.77Z" style="fill:#f1f0f0"/><path d="M43.88,309.48a1.43,1.43,0,0,0,.78-1.3h-.08a.52.52,0,0,1-.55-.52.53.53,0,0,1,.55-.58c.41,0,.65.34.65.95a2,2,0,0,1-1.11,1.84Z" style="fill:#f1f0f0"/><path d="M46,313.21a2.27,2.27,0,0,0,1.49.6c.67,0,1-.35,1-.79s-.6-.75-1.15-1c-.72-.26-1.51-.6-1.51-1.46s.65-1.44,1.74-1.44a2.53,2.53,0,0,1,1.57.57l-.41.54a1.88,1.88,0,0,0-1.15-.45c-.63,0-.93.34-.93.73s.55.65,1.12.87c.73.27,1.54.57,1.54,1.53s-.66,1.51-1.85,1.51a3,3,0,0,1-1.88-.7Z" style="fill:#f1f0f0"/><path d="M55.46,307.41a2.61,2.61,0,0,1,2,.84l-.49.55a1.87,1.87,0,0,0-1.46-.64c-1.37,0-2.26,1.06-2.26,2.76s.81,2.8,2.27,2.8a1.87,1.87,0,0,0,1.23-.41v-1.78H55.26v-.72H57.5v2.87a3,3,0,0,1-2.11.79c-1.79,0-3.07-1.31-3.07-3.54S53.63,307.41,55.46,307.41Z" style="fill:#f1f0f0"/><path d="M59.09,315.83c.57,0,.94-.46,1.15-1.08l.12-.37-2-5.07h.88l1,2.8c.16.44.33,1,.49,1.43h0c.15-.46.29-1,.43-1.43l.9-2.8h.83L61,314.78c-.35,1-.87,1.76-1.89,1.76a1.66,1.66,0,0,1-.59-.1l.17-.68A1.46,1.46,0,0,0,59.09,315.83Z" style="fill:#f1f0f0"/><path d="M63.91,309.3h.71l.07.73h0a2.22,2.22,0,0,1,1.57-.85,1.33,1.33,0,0,1,1.39,1,2.39,2.39,0,0,1,1.67-1c1,0,1.54.69,1.54,2v3.2H70v-3.09c0-.95-.3-1.35-.94-1.35a1.86,1.86,0,0,0-1.27.78v3.66H67v-3.09c0-.95-.3-1.35-.95-1.35a1.9,1.9,0,0,0-1.27.78v3.66h-.85Z" style="fill:#f1f0f0"/></g><g style="opacity:0.800000011920929"><path d="M128.71,307.53h.86v6.09h3v.74h-3.85Z" style="fill:#f1f0f0"/><path d="M135.53,309.18a2.67,2.67,0,1,1-2.34,2.66A2.42,2.42,0,0,1,135.53,309.18Zm0,4.6c.87,0,1.46-.78,1.46-1.94s-.58-2-1.46-2-1.46.79-1.46,2S134.66,313.78,135.53,313.78Z" style="fill:#f1f0f0"/><path d="M138.56,309.3h.87l.75,2.92c.12.48.21.94.3,1.4h0c.11-.47.22-.94.34-1.4l.78-2.92h.83l.79,2.92c.13.48.24.94.35,1.4h0c.11-.47.21-.93.31-1.4l.74-2.92h.81l-1.35,5.06h-1l-.73-2.72c-.12-.48-.22-.95-.34-1.46h0c-.12.51-.22,1-.35,1.47l-.71,2.71h-1Z" style="fill:#f1f0f0"/><path d="M148.49,309.18c1.29,0,2,.93,2,2.37a3,3,0,0,1,0,.47h-3.41a1.68,1.68,0,0,0,1.69,1.78,2.28,2.28,0,0,0,1.26-.4l.3.56a3,3,0,0,1-1.66.52,2.68,2.68,0,0,1-.16-5.31Zm1.27,2.28c0-1-.46-1.6-1.25-1.6a1.58,1.58,0,0,0-1.46,1.6Z" style="fill:#f1f0f0"/><path d="M151.76,309.3h.71l.07.92h0a1.73,1.73,0,0,1,1.44-1,1.25,1.25,0,0,1,.54.1l-.17.75a1.42,1.42,0,0,0-.49-.08c-.43,0-.94.31-1.28,1.17v3.25h-.85Z" style="fill:#f1f0f0"/></g><g style="opacity:0.800000011920929"><path d="M25.08,343.43H23v-.73h5v.73H26v6.1h-.87v-6.1Z" style="fill:#f1f0f0"/><path d="M29.16,342.13H30v2l0,1a2.42,2.42,0,0,1,1.69-.83c1.06,0,1.54.69,1.54,2v3.2h-.85v-3.09c0-.95-.29-1.35-1-1.35s-.87.27-1.38.78v3.66h-.85Z" style="fill:#f1f0f0"/><path d="M36.72,344.35c1.29,0,2,.93,2,2.37a3,3,0,0,1,0,.47H35.29A1.68,1.68,0,0,0,37,349a2.28,2.28,0,0,0,1.26-.4l.3.56a3,3,0,0,1-1.67.52,2.68,2.68,0,0,1-.16-5.31ZM38,346.63c0-1-.46-1.6-1.25-1.6a1.58,1.58,0,0,0-1.46,1.6Z" style="fill:#f1f0f0"/><path d="M42.17,342.71h2.09c1.51,0,2.52.51,2.52,2s-1,2.11-2.52,2.11H43v2.71h-.86Zm2,3.41c1.19,0,1.76-.44,1.76-1.4s-.58-1.31-1.76-1.31H43v2.72Z" style="fill:#f1f0f0"/><path d="M50.5,346.33c0-.65-.22-1.27-1-1.27a2.73,2.73,0,0,0-1.51.54l-.34-.59a3.75,3.75,0,0,1,2-.66c1.24,0,1.76.82,1.76,2.08v3.1h-.71l-.07-.6h0a2.75,2.75,0,0,1-1.67.73,1.38,1.38,0,0,1-1.49-1.44C47.39,347.12,48.35,346.57,50.5,346.33ZM49.12,349a2.07,2.07,0,0,0,1.38-.68v-1.4c-1.7.21-2.27.63-2.27,1.27A.78.78,0,0,0,49.12,349Z" style="fill:#f1f0f0"/><path d="M53,344.48h.71l.07.92h0a1.73,1.73,0,0,1,1.44-1,1.25,1.25,0,0,1,.54.1l-.17.75a1.42,1.42,0,0,0-.49-.08c-.43,0-.94.31-1.28,1.17v3.25H53Z" style="fill:#f1f0f0"/><path d="M56.73,345.17H56v-.65l.79-.05.1-1.42h.72v1.42H59v.7H57.59V348c0,.63.2,1,.78,1a1.83,1.83,0,0,0,.57-.14l.17.65a3.12,3.12,0,0,1-.94.19c-1.08,0-1.45-.69-1.45-1.69v-2.8Z" style="fill:#f1f0f0"/><path d="M60.1,344.48h.71l.07.73h0a2.38,2.38,0,0,1,1.7-.85c1.06,0,1.54.69,1.54,2v3.2h-.85v-3.09c0-.95-.29-1.35-1-1.35s-.87.27-1.38.78v3.66H60.1Z" style="fill:#f1f0f0"/><path d="M67.69,344.35c1.29,0,2,.93,2,2.37a3,3,0,0,1,0,.47H66.26A1.68,1.68,0,0,0,67.95,349a2.28,2.28,0,0,0,1.26-.4l.3.56a3,3,0,0,1-1.67.52,2.68,2.68,0,0,1-.16-5.31ZM69,346.63c0-1-.46-1.6-1.25-1.6a1.58,1.58,0,0,0-1.46,1.6Z" style="fill:#f1f0f0"/><path d="M71,344.48h.71l.07.92h0a1.73,1.73,0,0,1,1.44-1,1.25,1.25,0,0,1,.54.1l-.17.75a1.42,1.42,0,0,0-.49-.08c-.43,0-.94.31-1.28,1.17v3.25H71Z" style="fill:#f1f0f0"/><path d="M74.33,348.39a2.27,2.27,0,0,0,1.49.6c.67,0,1-.35,1-.79s-.6-.75-1.15-1c-.72-.26-1.51-.6-1.51-1.46s.65-1.44,1.74-1.44a2.53,2.53,0,0,1,1.57.57l-.41.54A1.88,1.88,0,0,0,75.9,345c-.64,0-.93.34-.93.73s.55.65,1.12.87c.73.27,1.54.57,1.54,1.53s-.66,1.51-1.85,1.51a3,3,0,0,1-1.88-.7Z" style="fill:#f1f0f0"/><path d="M78.83,342.13h.85v2l0,1a2.42,2.42,0,0,1,1.69-.83c1.06,0,1.54.69,1.54,2v3.2H82v-3.09c0-.95-.29-1.35-1-1.35s-.87.27-1.38.78v3.66h-.85Z" style="fill:#f1f0f0"/><path d="M84.33,342.88a.59.59,0,0,1,1.19,0,.59.59,0,0,1-1.19,0Zm.16,1.59h.85v5.06h-.85Z" style="fill:#f1f0f0"/><path d="M87.9,350v1.71h-.85v-7.19h.71l.07.58h0a2.62,2.62,0,0,1,1.61-.71c1.3,0,2,1,2,2.58s-1,2.73-2.18,2.73a2.35,2.35,0,0,1-1.4-.58Zm1.24-1c.83,0,1.45-.76,1.45-2s-.37-1.86-1.33-1.86a2.13,2.13,0,0,0-1.35.69v2.65A2,2,0,0,0,89.14,348.94Z" style="fill:#f1f0f0"/><path d="M23.66,358.32H27.6v.73H24.53v2.31h2.6v.73h-2.6v3.06h-.86Z" style="fill:#f1f0f0"/><path d="M31.35,358.2a2.48,2.48,0,0,1,1.86.84l-.49.55a1.79,1.79,0,0,0-1.36-.64c-1.3,0-2.15,1.06-2.15,2.76s.82,2.8,2.11,2.8a2,2,0,0,0,1.57-.76l.49.53a2.64,2.64,0,0,1-2.08,1c-1.72,0-3-1.31-3-3.54S29.6,358.2,31.35,358.2Z" style="fill:#f1f0f0"/><path d="M34.47,358.32h.86v4c0,1.64.7,2.17,1.59,2.17s1.61-.52,1.61-2.17v-4h.83v4c0,2.2-1.05,2.95-2.44,2.95s-2.46-.75-2.46-2.95v-4Z" style="fill:#f1f0f0"/><path d="M46.44,363.07H44l-.66,2.08h-.88l2.31-6.83h1L48,365.15h-.93Zm-.22-.7-.32-1c-.25-.76-.47-1.51-.69-2.3h0c-.21.79-.43,1.54-.68,2.3l-.32,1Z" style="fill:#f1f0f0"/><path d="M50,359H47.92v-.73h5V359H50.85v6.1H50Z" style="fill:#f1f0f0"/><path d="M54.15,358.32h1L56.49,362l.5,1.39h0l.48-1.39,1.31-3.66h1v6.83H59v-3.76c0-.6.06-1.42.12-2h0l-.55,1.52-1.31,3.57h-.49l-1.32-3.57-.54-1.52h0c0,.6.11,1.42.11,2v3.76h-.8Z" style="fill:#f1f0f0"/></g><g style="opacity:0.800000011920929"><path d="M128.71,342.71h.86v6.09h3v.74h-3.85Z" style="fill:#f1f0f0"/><path d="M135.53,344.35a2.67,2.67,0,1,1-2.34,2.66A2.42,2.42,0,0,1,135.53,344.35Zm0,4.6c.87,0,1.46-.78,1.46-1.94s-.58-2-1.46-2-1.46.79-1.46,2S134.66,349,135.53,349Z" style="fill:#f1f0f0"/><path d="M138.56,344.48h.87l.75,2.92c.12.48.21.94.3,1.4h0c.11-.47.22-.94.34-1.4l.78-2.92h.83l.79,2.92c.13.48.24.94.35,1.4h0c.11-.47.21-.93.31-1.4l.74-2.92h.81l-1.35,5.06h-1l-.73-2.72c-.12-.48-.22-.95-.34-1.46h0c-.12.51-.22,1-.35,1.47l-.71,2.71h-1Z" style="fill:#f1f0f0"/><path d="M148.49,344.35c1.29,0,2,.93,2,2.37a3,3,0,0,1,0,.47h-3.41a1.68,1.68,0,0,0,1.69,1.78,2.28,2.28,0,0,0,1.26-.4l.3.56a3,3,0,0,1-1.66.52,2.68,2.68,0,0,1-.16-5.31Zm1.27,2.28c0-1-.46-1.6-1.25-1.6a1.58,1.58,0,0,0-1.46,1.6Z" style="fill:#f1f0f0"/><path d="M151.76,344.48h.71l.07.92h0a1.73,1.73,0,0,1,1.44-1,1.25,1.25,0,0,1,.54.1l-.17.75a1.42,1.42,0,0,0-.49-.08c-.43,0-.94.31-1.28,1.17v3.25h-.85Z" style="fill:#f1f0f0"/></g></g></g></svg>