<svg xmlns="http://www.w3.org/2000/svg" viewBox="0 0 175.1 404.74"><title>compass-metro</title><g id="Layer_2" data-name="Layer 2"><g id="Layer_1-2" data-name="Layer 1"><rect width="175.1" height="404.74" style="fill:#38a4dd"/><path d="M23.34,29.46H25l3.53,9.06,1.33,3.42H30l1.28-3.42,3.53-9.06h1.66V44.89H35.3V34.75c0-1.26.08-2.88.15-4.17h-.1L34,34l-3.61,9.23h-1L25.72,34l-1.33-3.4h-.1c.08,1.29.15,2.9.15,4.17V44.89h-1.1V29.46Z" style="fill:#fff"/><path d="M45.61,33.37c2.92,0,4.71,1.9,4.71,5.2a4.69,4.69,0,0,1-.05.84H41.41c.05,2.83,1.87,4.87,4.63,4.87a5.77,5.77,0,0,0,3.3-1l.46.8a7.29,7.29,0,0,1-3.86,1.1,5.52,5.52,0,0,1-5.68-5.88C40.26,35.62,42.87,33.37,45.61,33.37Zm3.63,5.25c0-2.88-1.41-4.36-3.61-4.36s-4,1.66-4.22,4.36Z" style="fill:#fff"/><path d="M53.65,34.54H51.73v-.8l1.94-.09.15-3.26h1v3.26h3.56v.89H54.8v7.33c0,1.43.38,2.39,2.07,2.39a4.41,4.41,0,0,0,1.53-.35l.31.84a7.41,7.41,0,0,1-2,.42c-2.38,0-3.07-1.38-3.07-3.4V34.54Z" style="fill:#fff"/><path d="M61.35,33.65h1l.1,2.08h.08A4.2,4.2,0,0,1,66,33.37a2.74,2.74,0,0,1,1.23.23l-.26.94a2.89,2.89,0,0,0-1.13-.19c-1.1,0-2.41.77-3.35,2.88v7.66H61.36V33.65Z" style="fill:#fff"/><path d="M73.69,33.37c3,0,5.53,2.15,5.53,5.93s-2.56,5.88-5.53,5.88-5.5-2.15-5.5-5.88S70.75,33.37,73.69,33.37Zm0,10.89c2.48,0,4.35-2,4.35-5s-1.87-5-4.35-5-4.32,2-4.32,5S71.21,44.26,73.69,44.26Z" style="fill:#fff"/><path d="M23.18,116.75c0-2.89,1.57-4.71,3.76-4.71s3.78,1.82,3.78,4.71-1.57,4.78-3.78,4.78S23.18,119.65,23.18,116.75Zm6.86,0c0-2.53-1.23-4.12-3.1-4.12s-3.1,1.6-3.1,4.12,1.23,4.19,3.1,4.19S30,119.29,30,116.75Z" style="fill:#fff"/><path d="M32.75,114.69h.53l.06,1.24h0a2.29,2.29,0,0,1,1.89-1.4,1.37,1.37,0,0,1,.67.14l-.14.56a1.46,1.46,0,0,0-.61-.11c-.6,0-1.3.46-1.82,1.71v4.54h-.61v-6.67Z" style="fill:#fff"/><path d="M40.76,117.18c0-1-.26-2.11-1.57-2.11a3.68,3.68,0,0,0-2.12.78l-.28-.46a4.45,4.45,0,0,1,2.47-.86c1.58,0,2.11,1.14,2.11,2.57v4.26h-.51l-.07-.86h0a4,4,0,0,1-2.36,1,1.75,1.75,0,0,1-1.94-1.83C36.45,118.22,37.8,117.51,40.76,117.18ZM38.49,121a3.5,3.5,0,0,0,2.26-1.08v-2.26c-2.73.32-3.67,1-3.67,2A1.25,1.25,0,0,0,38.49,121Z" style="fill:#fff"/><path d="M43.75,114.69h.53l.06,1h0a3.25,3.25,0,0,1,2.29-1.19c1.38,0,2,.83,2,2.56v4.28h-.61v-4.19c0-1.42-.44-2.08-1.53-2.08-.79,0-1.36.42-2.18,1.25v5h-.61v-6.67Z" style="fill:#fff"/><path d="M51.57,121.11v-.06A1.19,1.19,0,0,1,51,120a1.57,1.57,0,0,1,.72-1.22v-.06a2.49,2.49,0,0,1-.83-1.83,2.29,2.29,0,0,1,2.35-2.35,2.37,2.37,0,0,1,.88.17h2.26v.51H54.8a2.21,2.21,0,0,1,.73,1.68,2.28,2.28,0,0,1-2.32,2.35,2.32,2.32,0,0,1-1.11-.28,1.2,1.2,0,0,0-.54,1c0,.49.28.88,1.28.88h1.43c1.5,0,2.19.47,2.19,1.53s-1.23,2.25-3.15,2.25c-1.68,0-2.73-.72-2.73-1.85A2.1,2.1,0,0,1,51.57,121.11Zm1.82,3c1.5,0,2.46-.85,2.46-1.68s-.54-1-1.54-1H52.87a4.08,4.08,0,0,1-.83-.11,1.74,1.74,0,0,0-.87,1.4C51.17,123.5,52,124.07,53.39,124.07Zm1.55-7.19a1.73,1.73,0,1,0-3.46,0,1.73,1.73,0,1,0,3.46,0Z" style="fill:#fff"/><path d="M60.09,114.53c1.58,0,2.55,1.13,2.55,3.08a3.11,3.11,0,0,1,0,.5h-4.8c0,1.68,1,2.89,2.51,2.89a3,3,0,0,0,1.79-.6l.25.47a3.72,3.72,0,0,1-2.1.65c-1.71,0-3.08-1.31-3.08-3.49S58.61,114.53,60.09,114.53Zm2,3.11c0-1.71-.76-2.58-2-2.58a2.52,2.52,0,0,0-2.29,2.58Z" style="fill:#fff"/><path d="M67.28,112.21h.64v8.6h4.22v.56H67.28v-9.15Z" style="fill:#fff"/><path d="M73.46,112.54a.56.56,0,1,1,.56.54A.53.53,0,0,1,73.46,112.54Zm.24,2.15h.61v6.67h-.61Z" style="fill:#fff"/><path d="M76.87,114.69h.53l.06,1h0a3.25,3.25,0,0,1,2.29-1.19c1.38,0,2,.83,2,2.56v4.28h-.61v-4.19c0-1.42-.44-2.08-1.53-2.08-.79,0-1.36.42-2.18,1.25v5h-.61v-6.67Z" style="fill:#fff"/><path d="M86.6,114.53c1.58,0,2.55,1.13,2.55,3.08a3.11,3.11,0,0,1,0,.5h-4.8c0,1.68,1,2.89,2.51,2.89a3,3,0,0,0,1.79-.6l.25.47a3.72,3.72,0,0,1-2.1.65c-1.71,0-3.08-1.31-3.08-3.49S85.12,114.53,86.6,114.53Zm2,3.11c0-1.71-.76-2.58-2-2.58a2.52,2.52,0,0,0-2.29,2.58Z" style="fill:#fff"/><path d="M122.12,156.18h3.67v-13H123v-.74a9.42,9.42,0,0,0,3-1h.88v14.69h3.4v1h-8.18Z" style="fill:#fff"/><path d="M136.66,149.7h.8l1.7,4.36.64,1.65h0l.62-1.65,1.7-4.36h.8v7.43h-.56v-4.88c0-.61,0-1.39.07-2h0l-.64,1.63-1.74,4.44h-.51l-1.75-4.44-.64-1.63h0c0,.62.07,1.4.07,2v4.88h-.53V149.7Z" style="fill:#fff"/><path d="M145.09,150a.5.5,0,1,1,.49.44A.45.45,0,0,1,145.09,150Zm.21,1.75h.54v5.41h-.54Z" style="fill:#fff"/><path d="M148.12,151.72h.47l0,.83h0a3,3,0,0,1,2-1c1.22,0,1.79.68,1.79,2.07v3.47H152v-3.4c0-1.15-.4-1.69-1.36-1.69a2.79,2.79,0,0,0-1.94,1v4.08h-.54Z" style="fill:#fff"/><path d="M22.42,148.76h.85l1,3.38c.23.74.37,1.34.61,2.07h0c.23-.73.38-1.32.6-2.07l1-3.38h.81l-2,6.26h-.92Z" style="fill:#fff"/><path d="M27.94,148.93a.55.55,0,0,1,1.09,0,.55.55,0,0,1-1.09,0Zm.14,1.46h.78V155h-.78Z" style="fill:#fff"/><path d="M32.17,150.27c1.18,0,1.85.85,1.85,2.18a2.77,2.77,0,0,1,0,.43H30.86a1.54,1.54,0,0,0,1.54,1.63,2.11,2.11,0,0,0,1.15-.36l.28.51a2.75,2.75,0,0,1-1.53.48,2.45,2.45,0,0,1-.14-4.87Zm1.16,2.09c0-.94-.42-1.47-1.15-1.47a1.45,1.45,0,0,0-1.34,1.47Z" style="fill:#fff"/><path d="M35.17,150.39h.65l.07.67h0a2.19,2.19,0,0,1,1.55-.78c1,0,1.41.63,1.41,1.81V155H38.1v-2.83c0-.87-.27-1.24-.88-1.24s-.8.25-1.27.72V155h-.78v-4.64Z" style="fill:#fff"/><path d="M40.39,150.39H41l.07.67h0a2.18,2.18,0,0,1,1.55-.78c1,0,1.41.63,1.41,1.81V155h-.78v-2.83c0-.87-.27-1.24-.88-1.24s-.8.25-1.27.72V155h-.78v-4.64Z" style="fill:#fff"/><path d="M48.23,152.08c0-.59-.2-1.16-1-1.16a2.49,2.49,0,0,0-1.38.5l-.32-.54a3.45,3.45,0,0,1,1.82-.6c1.14,0,1.61.75,1.61,1.91V155h-.65l-.07-.55h0a2.52,2.52,0,0,1-1.53.67,1.26,1.26,0,0,1-1.36-1.32C45.38,152.81,46.26,152.3,48.23,152.08ZM47,154.51a1.9,1.9,0,0,0,1.27-.62V152.6c-1.55.19-2.08.57-2.08,1.16A.71.71,0,0,0,47,154.51Z" style="fill:#fff"/><path d="M52.5,148.76h3.6v.67H53.29v2.12h2.39v.67H53.29V155H52.5Z" style="fill:#fff"/><path d="M59.43,152.08c0-.59-.2-1.16-1-1.16a2.49,2.49,0,0,0-1.38.5l-.32-.54a3.45,3.45,0,0,1,1.82-.6c1.14,0,1.61.75,1.61,1.91V155h-.65l-.07-.55h0a2.52,2.52,0,0,1-1.53.67,1.26,1.26,0,0,1-1.36-1.32C56.58,152.81,57.46,152.3,59.43,152.08Zm-1.27,2.42a1.9,1.9,0,0,0,1.27-.62V152.6c-1.55.19-2.08.57-2.08,1.16A.71.71,0,0,0,58.17,154.51Z" style="fill:#fff"/><path d="M61.55,148.93a.55.55,0,0,1,1.09,0,.55.55,0,0,1-1.09,0Zm.14,1.46h.78V155H61.7Z" style="fill:#fff"/><path d="M64,150.39h.65l.07.84h0a1.59,1.59,0,0,1,1.32-1,1.13,1.13,0,0,1,.5.1l-.15.69A1.29,1.29,0,0,0,66,151c-.39,0-.86.29-1.17,1.07v3H64v-4.64Z" style="fill:#fff"/><path d="M69.44,148.87a1.3,1.3,0,0,0-.52-.11c-.44,0-.65.31-.65.9v.73h1V151h-1v4h-.78v-4h-.63v-.59l.63,0v-.73c0-.94.43-1.54,1.35-1.54a2.1,2.1,0,0,1,.77.15Z" style="fill:#fff"/><path d="M72.57,152.08c0-.59-.2-1.16-1-1.16a2.49,2.49,0,0,0-1.38.5l-.32-.54a3.45,3.45,0,0,1,1.82-.6c1.14,0,1.61.75,1.61,1.91V155h-.65l-.07-.55h0a2.52,2.52,0,0,1-1.53.67,1.26,1.26,0,0,1-1.36-1.32C69.72,152.81,70.6,152.3,72.57,152.08Zm-1.27,2.42a1.9,1.9,0,0,0,1.27-.62V152.6c-1.55.19-2.08.57-2.08,1.16A.71.71,0,0,0,71.3,154.51Z" style="fill:#fff"/><path d="M75.7,152.6l-1.4-2.21h.85l.62,1c.14.25.3.51.46.77h0c.13-.26.28-.52.42-.77l.56-1h.82l-1.4,2.3L78.18,155h-.85l-.68-1.08c-.16-.28-.33-.56-.51-.83h0c-.16.27-.32.54-.47.83L75,155h-.82Z" style="fill:#fff"/><path d="M121.4,189.59a5.47,5.47,0,0,0,4.34,2,3.4,3.4,0,0,0,3.65-3.45c0-2.15-1.57-3.62-5.46-3.62v-1c3.63,0,4.9-1.52,4.9-3.4a2.86,2.86,0,0,0-3.16-2.91,5.05,5.05,0,0,0-3.6,1.71l-.64-.73a5.94,5.94,0,0,1,4.24-1.91c2.42,0,4.29,1.37,4.29,3.77a4,4,0,0,1-3,3.87v.1a4.18,4.18,0,0,1,3.55,4.07c0,2.72-2.08,4.43-4.78,4.43a6.49,6.49,0,0,1-5-2.2Z" style="fill:#fff"/><path d="M136.66,184.83h.8l1.7,4.36.64,1.65h0l.62-1.65,1.7-4.36h.8v7.43h-.56v-4.88c0-.61,0-1.39.07-2h0L141.8,187l-1.74,4.44h-.51L137.8,187l-.64-1.63h0c0,.62.07,1.4.07,2v4.88h-.53v-7.43Z" style="fill:#fff"/><path d="M145.09,185.1a.5.5,0,0,1,1,0,.5.5,0,0,1-1,0Zm.21,1.75h.54v5.41h-.54Z" style="fill:#fff"/><path d="M148.12,186.85h.47l0,.84h0a3,3,0,0,1,2-1c1.22,0,1.79.68,1.79,2.07v3.47H152v-3.4c0-1.15-.4-1.69-1.36-1.69a2.79,2.79,0,0,0-1.94,1v4.08h-.54Z" style="fill:#fff"/><path d="M23.28,183.89h.82l2.26,3.93.68,1.3h0c0-.63-.1-1.34-.1-2V183.9h.75v6.26h-.82l-2.27-3.94L24,184.93h0c0,.63.1,1.3.1,2v3.27h-.75v-6.26Z" style="fill:#fff"/><path d="M31.11,185.4c1.18,0,1.85.85,1.85,2.18a2.77,2.77,0,0,1,0,.43H29.8a1.54,1.54,0,0,0,1.54,1.63,2.1,2.1,0,0,0,1.15-.36l.28.52a2.76,2.76,0,0,1-1.53.48,2.45,2.45,0,0,1-.14-4.87Zm1.16,2.09c0-.94-.42-1.47-1.15-1.47a1.45,1.45,0,0,0-1.34,1.47Z" style="fill:#fff"/><path d="M33.6,185.51h.8l.69,2.68c.1.44.19.86.28,1.29h0c.1-.43.2-.86.31-1.29l.72-2.68h.76l.72,2.68c.11.44.22.86.32,1.29h0c.1-.43.19-.85.29-1.29l.68-2.68H40l-1.24,4.63h-1l-.67-2.49c-.11-.44-.2-.87-.32-1.34h0c-.1.47-.2.9-.32,1.35l-.65,2.48h-.91Z" style="fill:#fff"/><path d="M45.43,183.78a2.28,2.28,0,0,1,1.71.77l-.45.51a1.64,1.64,0,0,0-1.25-.58c-1.19,0-2,1-2,2.53s.75,2.57,1.94,2.57a1.83,1.83,0,0,0,1.44-.7l.45.49a2.42,2.42,0,0,1-1.91.91c-1.57,0-2.74-1.2-2.74-3.24S43.83,183.78,45.43,183.78Z" style="fill:#fff"/><path d="M51,187.21c0-.59-.2-1.16-1-1.16a2.49,2.49,0,0,0-1.38.49l-.32-.54a3.45,3.45,0,0,1,1.82-.6c1.14,0,1.61.75,1.61,1.91v2.84h-.65l-.07-.55h0a2.52,2.52,0,0,1-1.53.67,1.26,1.26,0,0,1-1.36-1.32C48.15,187.94,49,187.43,51,187.21Zm-1.27,2.42A1.9,1.9,0,0,0,51,189v-1.29c-1.55.19-2.08.57-2.08,1.16A.71.71,0,0,0,49.74,189.63Z" style="fill:#fff"/><path d="M53.27,185.51h.65l.07.84h0a1.59,1.59,0,0,1,1.32-1,1.15,1.15,0,0,1,.5.1l-.15.69a1.29,1.29,0,0,0-.45-.08c-.39,0-.86.29-1.17,1.07v3h-.78v-4.64Z" style="fill:#fff"/><path d="M56.58,185.51h.65l.07.84h0a1.58,1.58,0,0,1,1.32-1,1.15,1.15,0,0,1,.5.1l-.15.69a1.29,1.29,0,0,0-.45-.08c-.39,0-.86.29-1.17,1.07v3h-.78v-4.64Z" style="fill:#fff"/><path d="M61.6,185.4a2.45,2.45,0,1,1-2.15,2.44A2.21,2.21,0,0,1,61.6,185.4Zm0,4.22c.8,0,1.34-.72,1.34-1.77S62.4,186,61.6,186s-1.34.73-1.34,1.79S60.81,189.62,61.6,189.62Z" style="fill:#fff"/><path d="M65,183.36h.78v5.91c0,.25.1.34.22.34a.63.63,0,0,0,.17,0l.1.59a1,1,0,0,1-.45.08c-.59,0-.83-.37-.83-1Z" style="fill:#fff"/><path d="M67.54,186.15h-.69v-.59l.73,0,.09-1.3h.66v1.3h1.25v.64H68.33v2.57c0,.57.18.9.72.9a1.7,1.7,0,0,0,.53-.12l.15.59a2.86,2.86,0,0,1-.86.17c-1,0-1.33-.63-1.33-1.54v-2.57Z" style="fill:#fff"/><path d="M72.33,185.4a2.45,2.45,0,1,1-2.15,2.44A2.21,2.21,0,0,1,72.33,185.4Zm0,4.22c.8,0,1.34-.72,1.34-1.77S73.14,186,72.33,186s-1.34.73-1.34,1.79S71.54,189.62,72.33,189.62Z" style="fill:#fff"/><path d="M75.71,185.51h.65l.07.67h0A2.18,2.18,0,0,1,78,185.4c1,0,1.41.63,1.41,1.81v2.94h-.78v-2.83c0-.87-.27-1.24-.88-1.24s-.8.25-1.27.71v3.36H75.7v-4.64Z" style="fill:#fff"/><g style="opacity:0.8999999761581421"><g style="opacity:0.8999999761581421"><path d="M125.42,119.82h-1.91l-.44,1.54h-1l1.85-5.68h1.18l1.85,5.68h-1.06Zm-.23-.79-.2-.69c-.18-.6-.35-1.25-.51-1.88h0c-.16.63-.32,1.28-.5,1.88l-.2.69Z" style="fill:#f1f0f0"/></g><g style="opacity:0.8999999761581421"><path d="M126.86,117.1h1l.68,2.21c.11.42.24.85.36,1.28h0c.12-.43.24-.87.36-1.28l.68-2.21h1l-1.45,4.26h-1.15Z" style="fill:#f1f0f0"/></g><g style="opacity:0.8999999761581421"><path d="M132,121.22v0a.8.8,0,0,1-.38-.71,1,1,0,0,1,.47-.79v0a1.44,1.44,0,0,1-.56-1.13,1.55,1.55,0,0,1,1.68-1.53,1.92,1.92,0,0,1,.63.1h1.53v.74h-.78a1.13,1.13,0,0,1,.24.72,1.45,1.45,0,0,1-1.61,1.45,1.57,1.57,0,0,1-.58-.11.49.49,0,0,0-.21.41c0,.24.17.39.69.39h.76c1,0,1.56.31,1.56,1.05s-.89,1.5-2.28,1.5c-1,0-1.77-.36-1.77-1.11A1.1,1.1,0,0,1,132,121.22Zm1.32,1.37c.69,0,1.16-.32,1.16-.69s-.27-.43-.76-.43h-.58a2.28,2.28,0,0,1-.58-.06.72.72,0,0,0-.33.56C132.23,122.37,132.65,122.59,133.33,122.59Zm.63-4.07a.75.75,0,1,0-1.48,0,.75.75,0,1,0,1.48,0Z" style="fill:#f1f0f0"/></g><g style="opacity:0.8999999761581421"><path d="M137.5,115.68h1l.49,2.86c.1.61.19,1.22.28,1.81h0c.12-.6.24-1.21.37-1.81l.69-2.86h.88l.7,2.86c.13.59.25,1.21.38,1.81h0c.09-.61.18-1.21.27-1.81l.49-2.86h1L143,121.36h-1.25l-.7-3c-.1-.44-.18-.88-.25-1.31h0c-.08.43-.16.87-.26,1.31l-.69,3h-1.22Z" style="fill:#f1f0f0"/></g><g style="opacity:0.8999999761581421"><path d="M147.12,118.63c0-.45-.2-.83-.77-.83a2.36,2.36,0,0,0-1.2.42l-.36-.67a3.3,3.3,0,0,1,1.74-.56c1.07,0,1.59.65,1.59,1.84v2.53h-.82l-.08-.47h0a2.08,2.08,0,0,1-1.32.57,1.2,1.2,0,0,1-1.27-1.25C144.61,119.3,145.38,118.82,147.12,118.63Zm-.93,2a1.34,1.34,0,0,0,.93-.47v-1c-1.16.15-1.54.45-1.54.88S145.84,120.68,146.19,120.68Z" style="fill:#f1f0f0"/></g><g style="opacity:0.8999999761581421"><path d="M149.22,115.79a.62.62,0,1,1,.62.56A.57.57,0,0,1,149.22,115.79Zm.11,1.31h1v4.26h-1Z" style="fill:#f1f0f0"/></g><g style="opacity:0.8999999761581421"><path d="M151.75,117.89h-.61v-.75l.66,0,.12-1.16h.83v1.16h1.09v.79h-1.09v2c0,.5.19.75.6.75a1.22,1.22,0,0,0,.44-.1l.17.74a2.72,2.72,0,0,1-.87.16c-1,0-1.35-.62-1.35-1.54v-2Z" style="fill:#f1f0f0"/></g></g><path d="M23.48,270.76A3.6,3.6,0,0,0,26.16,272c1.4,0,2.28-.75,2.28-1.83s-.74-1.51-1.64-1.92l-1.39-.62a2.51,2.51,0,0,1-1.86-2.28,2.4,2.4,0,0,1,2.67-2.25,3.48,3.48,0,0,1,2.54,1.1l-.36.43a2.93,2.93,0,0,0-2.18-.94c-1.21,0-2,.64-2,1.64s.92,1.46,1.58,1.76l1.39.61c1,.46,1.93,1,1.93,2.43s-1.15,2.46-2.93,2.46a4.06,4.06,0,0,1-3.1-1.37Z" style="fill:#fff"/><path d="M30.69,263.6a.56.56,0,1,1,.56.54A.53.53,0,0,1,30.69,263.6Zm.24,2.15h.61v6.67h-.61Z" style="fill:#fff"/><path d="M34.11,262.43h.61v9.18c0,.29.13.43.29.43a1.1,1.1,0,0,0,.25,0l.11.5a1.31,1.31,0,0,1-.44.07c-.54,0-.82-.33-.82-1.06v-9.1Z" style="fill:#fff"/><path d="M36.29,265.75H37l1.5,4.18c.21.64.46,1.3.67,1.92h.06c.22-.61.46-1.28.68-1.92l1.5-4.18H42l-2.47,6.67h-.72Z" style="fill:#fff"/><path d="M45.77,265.58c1.58,0,2.55,1.13,2.55,3.08a3.11,3.11,0,0,1,0,.5h-4.8c0,1.68,1,2.89,2.51,2.89a3,3,0,0,0,1.79-.6l.25.47a3.72,3.72,0,0,1-2.1.65c-1.71,0-3.08-1.31-3.08-3.48S44.28,265.58,45.77,265.58Zm2,3.11c0-1.71-.76-2.58-2-2.58a2.51,2.51,0,0,0-2.29,2.58Z" style="fill:#fff"/><path d="M50.13,265.75h.53l.06,1.23h0a2.29,2.29,0,0,1,1.89-1.4,1.36,1.36,0,0,1,.67.14l-.14.55a1.46,1.46,0,0,0-.61-.11c-.6,0-1.3.46-1.82,1.71v4.54h-.61v-6.67Z" style="fill:#fff"/><path d="M57.35,263.27H58v8.6h4.22v.56H57.36v-9.15Z" style="fill:#fff"/><path d="M63.53,263.6a.56.56,0,1,1,.56.54A.53.53,0,0,1,63.53,263.6Zm.24,2.15h.61v6.67h-.61Z" style="fill:#fff"/><path d="M66.95,265.75h.53l.06,1h0a3.25,3.25,0,0,1,2.29-1.19c1.38,0,2,.83,2,2.56v4.28h-.61v-4.19c0-1.42-.44-2.08-1.53-2.08-.79,0-1.36.42-2.18,1.25v5h-.61v-6.67Z" style="fill:#fff"/><path d="M76.68,265.58c1.58,0,2.55,1.13,2.55,3.08a3.11,3.11,0,0,1,0,.5H74.4c0,1.68,1,2.89,2.51,2.89a3,3,0,0,0,1.79-.6l.25.47a3.72,3.72,0,0,1-2.1.65c-1.71,0-3.08-1.31-3.08-3.48S75.19,265.58,76.68,265.58Zm2,3.11c0-1.71-.76-2.58-2-2.58a2.51,2.51,0,0,0-2.29,2.58Z" style="fill:#fff"/><path d="M131,301.78H128.7v4.68h-1.05v-4.68h-7.2v-.64l7.27-10.33h1v10H131v.93Zm-3.38-.93v-5.73c0-.71,0-2,.1-2.69h-.1c-.39.66-.83,1.25-1.27,2l-4.6,6.47h5.88Z" style="fill:#fff"/><path d="M136.66,299h.8l1.7,4.36.64,1.65h0l.62-1.65,1.7-4.36h.8v7.43h-.56v-4.88c0-.61,0-1.39.07-2h0l-.64,1.64-1.74,4.44h-.51l-1.75-4.44-.64-1.64h0c0,.62.07,1.4.07,2v4.88h-.53V299Z" style="fill:#fff"/><path d="M145.09,299.29a.49.49,0,0,1,1,0,.5.5,0,0,1-1,0Zm.21,1.75h.54v5.41h-.54Z" style="fill:#fff"/><path d="M148.12,301h.47l0,.83h0a3,3,0,0,1,2-1c1.22,0,1.79.68,1.79,2.08v3.47H152V303c0-1.15-.4-1.69-1.36-1.69a2.79,2.79,0,0,0-1.94,1v4.08h-.54Z" style="fill:#fff"/><path d="M22.64,299.82h.82l.66,3.4c.11.68.25,1.35.36,2h0c.14-.68.3-1.35.44-2l.87-3.4h.73l.87,3.4c.15.66.31,1.35.46,2h0c.11-.68.23-1.35.35-2l.66-3.4h.76l-1.3,6.26h-1l-.94-3.77c-.11-.49-.21-.93-.31-1.42h0c-.09.49-.21.94-.31,1.42l-.92,3.77H24Z" style="fill:#fff"/><path d="M30.56,300a.55.55,0,0,1,1.09,0,.55.55,0,0,1-1.09,0Zm.14,1.46h.78v4.64H30.7Z" style="fill:#fff"/><path d="M34.78,301.33c1.18,0,1.85.85,1.85,2.17a2.79,2.79,0,0,1,0,.43H33.48A1.54,1.54,0,0,0,35,305.56a2.11,2.11,0,0,0,1.15-.36l.28.52a2.75,2.75,0,0,1-1.53.48,2.45,2.45,0,0,1-.14-4.87Zm1.16,2.09c0-.94-.42-1.47-1.15-1.47a1.45,1.45,0,0,0-1.34,1.47Z" style="fill:#fff"/><path d="M37.78,299.29h.78v1.85l0,1a2.21,2.21,0,0,1,1.54-.76c1,0,1.41.63,1.41,1.81v2.94h-.78v-2.83c0-.87-.27-1.24-.88-1.24s-.8.25-1.27.72v3.36h-.78Z" style="fill:#fff"/><path d="M43,299.29h.78v5.91c0,.25.1.34.22.34l.17,0,.1.59a1,1,0,0,1-.45.08c-.59,0-.83-.37-.83-1Z" style="fill:#fff"/><path d="M47.14,301.33c1.18,0,1.85.85,1.85,2.17a2.79,2.79,0,0,1,0,.43H45.84a1.54,1.54,0,0,0,1.54,1.63,2.11,2.11,0,0,0,1.15-.36l.28.52a2.75,2.75,0,0,1-1.53.48,2.45,2.45,0,0,1-.14-4.87Zm1.16,2.09c0-.94-.42-1.47-1.15-1.47a1.45,1.45,0,0,0-1.34,1.47Z" style="fill:#fff"/><path d="M49.81,303.39H52v.6H49.81Z" style="fill:#fff"/><path d="M56.67,306.08l-1.51-2.64H54v2.64h-.79v-6.26h2c1.28,0,2.19.46,2.19,1.76a1.71,1.71,0,0,1-1.4,1.77l1.58,2.73ZM54,302.79h1c1,0,1.52-.4,1.52-1.21s-.54-1.12-1.52-1.12H54Z" style="fill:#fff"/><path d="M60.35,301.33c1.18,0,1.85.85,1.85,2.17a2.79,2.79,0,0,1,0,.43H59a1.54,1.54,0,0,0,1.54,1.63,2.11,2.11,0,0,0,1.15-.36l.28.52a2.75,2.75,0,0,1-1.53.48,2.45,2.45,0,0,1-.14-4.87Zm1.16,2.09c0-.94-.42-1.47-1.15-1.47A1.45,1.45,0,0,0,59,303.42Z" style="fill:#fff"/><path d="M63.22,305a2.08,2.08,0,0,0,1.36.55c.61,0,.92-.32.92-.73s-.55-.69-1.06-.88c-.66-.24-1.38-.55-1.38-1.34s.59-1.32,1.59-1.32a2.31,2.31,0,0,1,1.44.52l-.37.5a1.72,1.72,0,0,0-1.06-.41c-.58,0-.85.31-.85.67s.51.6,1,.8,1.41.52,1.41,1.4-.6,1.38-1.7,1.38a2.79,2.79,0,0,1-1.73-.64Z" style="fill:#fff"/><path d="M67.48,302.08h-.69v-.59l.73,0,.09-1.3h.66v1.3h1.25v.64H68.27v2.58c0,.57.18.9.72.9a1.67,1.67,0,0,0,.53-.12l.15.59a2.86,2.86,0,0,1-.86.17c-1,0-1.33-.63-1.33-1.55v-2.57Z" style="fill:#fff"/><path d="M72.28,301.33a2.45,2.45,0,1,1-2.15,2.44A2.21,2.21,0,0,1,72.28,301.33Zm0,4.21c.8,0,1.34-.71,1.34-1.77S73.08,302,72.28,302s-1.34.73-1.34,1.79S71.49,305.54,72.28,305.54Z" style="fill:#fff"/><path d="M75.65,301.44h.65l.07.67h0a2.19,2.19,0,0,1,1.55-.78c1,0,1.41.63,1.41,1.81v2.94h-.78v-2.83c0-.87-.27-1.24-.88-1.24s-.8.25-1.27.72v3.36h-.78v-4.64Z" style="fill:#fff"/><path d="M129.39,327.76h-8.25v-1h9.63v.64c-3.75,5-4.68,8.89-4.92,15h-1.17C124.91,336.13,126.23,332.17,129.39,327.76Z" style="fill:#fff"/><path d="M134.82,335h.8l1.7,4.36L138,341h0l.62-1.65,1.7-4.36h.8v7.43h-.56v-4.88c0-.61,0-1.39.07-2h0L140,337.2l-1.74,4.44h-.51L136,337.2l-.64-1.64h0c0,.62.07,1.4.07,2v4.88h-.53V335Z" style="fill:#fff"/><path d="M143.25,335.29a.49.49,0,0,1,1,0,.5.5,0,0,1-1,0Zm.21,1.75H144v5.41h-.54Z" style="fill:#fff"/><path d="M146.28,337h.47l0,.83h0a3,3,0,0,1,2-1c1.22,0,1.79.68,1.79,2.08v3.47h-.54V339c0-1.15-.4-1.69-1.36-1.69a2.79,2.79,0,0,0-1.94,1v4.08h-.54V337Z" style="fill:#fff"/><path d="M23.28,335.82h.79v5.58h2.74v.68H23.28Z" style="fill:#fff"/><path d="M30.46,339.14c0-.59-.2-1.16-1-1.16a2.49,2.49,0,0,0-1.38.5l-.32-.54a3.45,3.45,0,0,1,1.82-.6c1.14,0,1.61.75,1.61,1.91v2.84H30.6l-.07-.55h0a2.52,2.52,0,0,1-1.53.67,1.26,1.26,0,0,1-1.36-1.32C27.61,339.86,28.49,339.36,30.46,339.14Zm-1.27,2.42a1.9,1.9,0,0,0,1.27-.62v-1.29c-1.55.19-2.08.57-2.08,1.16A.71.71,0,0,0,29.19,341.56Z" style="fill:#fff"/><path d="M32.73,337.44h.65l.07.84h0a1.59,1.59,0,0,1,1.32-1,1.15,1.15,0,0,1,.5.1l-.15.69a1.29,1.29,0,0,0-.45-.08c-.39,0-.86.29-1.17,1.07v3h-.78v-4.64Z" style="fill:#fff"/><path d="M36.27,341.91v0a.86.86,0,0,1-.41-.75,1.08,1.08,0,0,1,.51-.86v0a1.64,1.64,0,0,1,1.14-2.9,1.87,1.87,0,0,1,.66.11h1.61v.6h-1a1.34,1.34,0,0,1,.38,1,1.59,1.59,0,0,1-1.7,1.61,1.62,1.62,0,0,1-.7-.16.7.7,0,0,0-.29.55c0,.3.19.51.82.51h.9c1.08,0,1.62.33,1.62,1.11s-.91,1.6-2.35,1.6c-1.14,0-1.92-.45-1.92-1.25A1.34,1.34,0,0,1,36.27,341.91Zm1.35,1.75c.89,0,1.47-.46,1.47-.94s-.33-.57-.93-.57h-.8a2.27,2.27,0,0,1-.6-.08,1,1,0,0,0-.48.78C36.27,343.35,36.78,343.67,37.62,343.67Zm.87-4.69a1,1,0,1,0-2,0,1,1,0,1,0,2,0Z" style="fill:#fff"/><path d="M42.42,337.33a2.45,2.45,0,1,1-2.15,2.44A2.21,2.21,0,0,1,42.42,337.33Zm0,4.21c.8,0,1.34-.71,1.34-1.77S43.22,338,42.42,338s-1.34.73-1.34,1.79S41.63,341.54,42.42,341.54Z" style="fill:#fff"/><path d="M49.09,336.49H47.2v-.67h4.58v.67H49.89v5.59h-.8v-5.59Z" style="fill:#fff"/><path d="M54,337.33a2.45,2.45,0,1,1-2.15,2.44A2.21,2.21,0,0,1,54,337.33Zm0,4.21c.8,0,1.34-.71,1.34-1.77S54.81,338,54,338s-1.34.73-1.34,1.79S53.21,341.54,54,341.54Z" style="fill:#fff"/><path d="M56.78,337.44h.8l.69,2.68c.1.44.19.86.28,1.29h0c.1-.43.2-.86.31-1.29l.72-2.68h.76l.72,2.68c.11.44.22.86.32,1.29h0c.1-.43.19-.85.29-1.29l.68-2.68h.74l-1.24,4.64H61l-.67-2.49c-.11-.44-.2-.87-.32-1.33h0c-.1.47-.2.91-.32,1.35L59,342.08h-.91Z" style="fill:#fff"/><path d="M64.19,337.44h.65l.07.67h0a2.18,2.18,0,0,1,1.55-.78c1,0,1.41.63,1.41,1.81v2.94h-.78v-2.83c0-.87-.27-1.24-.88-1.24s-.8.25-1.27.71v3.36h-.78v-4.64Z" style="fill:#fff"/><path d="M73.83,335.7a2.28,2.28,0,0,1,1.71.77l-.45.51a1.64,1.64,0,0,0-1.25-.58c-1.19,0-2,1-2,2.53s.75,2.57,1.94,2.57a1.83,1.83,0,0,0,1.44-.7l.45.49a2.42,2.42,0,0,1-1.91.91c-1.57,0-2.74-1.2-2.74-3.24S72.23,335.7,73.83,335.7Z" style="fill:#fff"/><path d="M78.52,337.33c1.18,0,1.85.85,1.85,2.17a2.79,2.79,0,0,1,0,.43H77.21a1.54,1.54,0,0,0,1.54,1.63,2.11,2.11,0,0,0,1.15-.36l.28.52a2.75,2.75,0,0,1-1.53.48,2.45,2.45,0,0,1-.14-4.87Zm1.16,2.09c0-.94-.42-1.47-1.15-1.47a1.45,1.45,0,0,0-1.34,1.47Z" style="fill:#fff"/><path d="M81.52,337.44h.65l.07.67h0a2.19,2.19,0,0,1,1.55-.78c1,0,1.41.63,1.41,1.81v2.94h-.78v-2.83c0-.87-.27-1.24-.88-1.24s-.8.25-1.27.71v3.36h-.78v-4.64Z" style="fill:#fff"/><path d="M86.87,338.08h-.69v-.59l.73,0,.09-1.3h.66v1.3h1.25v.64H87.66v2.58c0,.57.18.9.72.9a1.67,1.67,0,0,0,.53-.12l.15.59a2.86,2.86,0,0,1-.86.17c-1,0-1.33-.63-1.33-1.55v-2.57Z" style="fill:#fff"/><path d="M91.6,337.33c1.18,0,1.85.85,1.85,2.17a2.79,2.79,0,0,1,0,.43H90.3a1.54,1.54,0,0,0,1.54,1.63A2.11,2.11,0,0,0,93,341.2l.28.52a2.75,2.75,0,0,1-1.53.48,2.45,2.45,0,0,1-.14-4.87Zm1.16,2.09c0-.94-.42-1.47-1.15-1.47a1.45,1.45,0,0,0-1.34,1.47Z" style="fill:#fff"/><path d="M94.6,337.44h.65l.07.84h0a1.58,1.58,0,0,1,1.32-1,1.15,1.15,0,0,1,.5.1l-.15.69a1.29,1.29,0,0,0-.45-.08c-.39,0-.86.29-1.17,1.07v3H94.6v-4.64Z" style="fill:#fff"/><g style="opacity:0.8999999761581421"><g style="opacity:0.8999999761581421"><path d="M125.42,270.88h-1.91l-.44,1.54h-1l1.85-5.68h1.18l1.85,5.68h-1.06Zm-.23-.79-.2-.69c-.18-.6-.35-1.25-.51-1.87h0c-.16.63-.32,1.28-.5,1.88l-.2.69Z" style="fill:#f1f0f0"/></g><g style="opacity:0.8999999761581421"><path d="M126.86,268.15h1l.68,2.21c.11.42.24.85.36,1.29h0c.12-.43.24-.87.36-1.29l.68-2.21h1l-1.45,4.26h-1.15Z" style="fill:#f1f0f0"/></g><g style="opacity:0.8999999761581421"><path d="M132,272.28v0a.8.8,0,0,1-.38-.71,1,1,0,0,1,.47-.79v0a1.44,1.44,0,0,1-.56-1.13,1.55,1.55,0,0,1,1.68-1.53,1.92,1.92,0,0,1,.63.1h1.53v.74h-.78a1.13,1.13,0,0,1,.24.72,1.45,1.45,0,0,1-1.61,1.45,1.55,1.55,0,0,1-.58-.11.49.49,0,0,0-.21.41c0,.24.17.39.69.39h.76c1,0,1.56.31,1.56,1.05s-.89,1.5-2.28,1.5c-1,0-1.77-.36-1.77-1.11A1.1,1.1,0,0,1,132,272.28Zm1.32,1.37c.69,0,1.16-.32,1.16-.69s-.27-.43-.76-.43h-.58a2.23,2.23,0,0,1-.58-.06.72.72,0,0,0-.33.56C132.23,273.42,132.65,273.65,133.33,273.65Zm.63-4.07a.75.75,0,1,0-1.48,0,.75.75,0,1,0,1.48,0Z" style="fill:#f1f0f0"/></g><g style="opacity:0.8999999761581421"><path d="M137.5,266.74h1l.49,2.86c.1.61.19,1.22.28,1.82h0c.12-.6.24-1.22.37-1.82l.69-2.86h.88l.7,2.86c.13.59.25,1.21.38,1.82h0c.09-.61.18-1.22.27-1.82l.49-2.86h1L143,272.42h-1.25l-.7-3c-.1-.44-.18-.88-.25-1.31h0c-.08.43-.16.87-.26,1.31l-.69,3h-1.22Z" style="fill:#f1f0f0"/></g><g style="opacity:0.8999999761581421"><path d="M147.12,269.69c0-.45-.2-.83-.77-.83a2.36,2.36,0,0,0-1.2.42l-.36-.67a3.31,3.31,0,0,1,1.74-.56c1.07,0,1.59.65,1.59,1.84v2.53h-.82l-.08-.47h0a2.08,2.08,0,0,1-1.32.57,1.2,1.2,0,0,1-1.27-1.25C144.61,270.36,145.38,269.88,147.12,269.69Zm-.93,2a1.34,1.34,0,0,0,.93-.47v-1c-1.16.15-1.54.45-1.54.88S145.84,271.74,146.19,271.74Z" style="fill:#f1f0f0"/></g><g style="opacity:0.8999999761581421"><path d="M149.22,266.84a.62.62,0,1,1,.62.56A.57.57,0,0,1,149.22,266.84Zm.11,1.31h1v4.26h-1Z" style="fill:#f1f0f0"/></g><g style="opacity:0.8999999761581421"><path d="M151.75,268.94h-.61v-.75l.66,0,.12-1.16h.83v1.16h1.09v.79h-1.09v2c0,.5.19.75.6.75a1.22,1.22,0,0,0,.44-.1l.17.74a2.72,2.72,0,0,1-.87.16c-1,0-1.35-.62-1.35-1.55v-2Z" style="fill:#f1f0f0"/></g></g><circle cx="33.48" cy="231.32" r="12.58" style="fill:#cfd8dc"/><circle cx="33.48" cy="80.08" r="12.58" style="fill:#f5a816"/></g></g></svg>