<svg xmlns="http://www.w3.org/2000/svg" viewBox="0 0 175.63 196.81"><title>compass-bikeshare</title><g id="Layer_2" data-name="Layer 2"><g id="Layer_1-2" data-name="Layer 1"><rect width="175.63" height="196.81" style="fill:#fa5457"/><path d="M28.77,23.63a6,6,0,0,1,4.38,1.85l-.72.7a4.94,4.94,0,0,0-3.66-1.57c-3.71,0-6,2.69-6,7s2.25,7.05,5.89,7.05a5.55,5.55,0,0,0,4.25-1.9l.72.68a6.57,6.57,0,0,1-5,2.2c-4.17,0-7.06-3.12-7.06-8S24.47,23.63,28.77,23.63Z" style="fill:#fff"/><path d="M44.18,32.3c.05-1.71-.49-3.56-2.89-3.56A7.15,7.15,0,0,0,37.37,30l-.51-.77a8.68,8.68,0,0,1,4.55-1.45c2.92,0,3.89,1.92,3.89,4.33v7.19h-.95l-.13-1.45h-.05a7.64,7.64,0,0,1-4.35,1.73c-1.95,0-3.58-1-3.58-3.09C36.24,34.06,38.73,32.86,44.18,32.3ZM40,38.74a6.71,6.71,0,0,0,4.17-1.83V33.1c-5,.54-6.76,1.62-6.76,3.4C37.42,38.11,38.6,38.74,40,38.74Z" style="fill:#fff"/><path d="M50.83,40.33v4.1H49.71V28.11h1l.1,1.4h.08A7.52,7.52,0,0,1,55,27.83c3.28,0,4.91,2.25,4.91,5.74,0,3.82-2.53,6.07-5.42,6.07a6.85,6.85,0,0,1-3.69-1.38Zm3.63-1.62c2.48,0,4.27-2.11,4.27-5.15,0-2.76-1.07-4.82-3.89-4.82a6.75,6.75,0,0,0-4,1.85v6.68A6.33,6.33,0,0,0,54.47,38.72Z" style="fill:#fff"/><path d="M63.2,24.48a1,1,0,0,1,2,0,1,1,0,0,1-2,0Zm.43,3.63h1.12V39.35H63.63Z" style="fill:#fff"/><path d="M69.78,29H67.86v-.8l1.95-.09L70,24.85h1v3.26h3.56V29H70.93v7.33c0,1.43.39,2.39,2.07,2.39a4.42,4.42,0,0,0,1.53-.35l.31.84a7.41,7.41,0,0,1-2,.42c-2.38,0-3.07-1.38-3.07-3.4Z" style="fill:#fff"/><path d="M84.18,32.3c.05-1.71-.49-3.56-2.89-3.56A7.15,7.15,0,0,0,77.38,30l-.51-.77a8.68,8.68,0,0,1,4.55-1.45c2.92,0,3.89,1.92,3.89,4.33v7.19h-.95l-.13-1.45h-.05a7.64,7.64,0,0,1-4.35,1.73c-1.95,0-3.58-1-3.58-3.09C76.25,34.06,78.73,32.86,84.18,32.3ZM80,38.74a6.71,6.71,0,0,0,4.17-1.83V33.1c-5,.54-6.76,1.62-6.76,3.4C77.43,38.11,78.61,38.74,80,38.74Z" style="fill:#fff"/><path d="M89.71,22.51h1.13V38c0,.49.23.73.54.73a2.14,2.14,0,0,0,.46,0l.21.84a2.6,2.6,0,0,1-.82.12c-1,0-1.51-.56-1.51-1.78Z" style="fill:#fff"/><path d="M22.63,52h4.55c3.4,0,5.58,1.17,5.58,3.75a3.44,3.44,0,0,1-3,3.37v.09c2.48.33,4,1.59,4,3.73,0,3-2.46,4.5-6.27,4.5H22.63V52Zm4.09,6.79c3.46,0,4.86-1,4.86-3.07s-1.64-2.83-4.73-2.83h-3v5.9Zm.49,7.75c3.35,0,5.43-1.12,5.43-3.61,0-2.2-2-3.28-5.43-3.28H23.8v6.89h3.4Z" style="fill:#fff"/><path d="M36.86,52.58a1,1,0,1,1,1,.91A1,1,0,0,1,36.86,52.58Zm.43,3.63h1.13V67.46H37.29Z" style="fill:#fff"/><path d="M43.15,50.62h1.13V63h.05l6.06-6.82h1.3l-4,4.45,4.66,6.79H51.11l-4.07-6-2.76,3v3.07H43.16V50.62Z" style="fill:#fff"/><path d="M59,55.93c2.92,0,4.71,1.9,4.71,5.2a4.69,4.69,0,0,1-.05.84H54.85c.05,2.83,1.87,4.87,4.63,4.87a5.77,5.77,0,0,0,3.3-1l.46.8a7.29,7.29,0,0,1-3.86,1.1,5.52,5.52,0,0,1-5.68-5.88C53.7,58.18,56.31,55.93,59,55.93Zm3.64,5.25c0-2.88-1.41-4.36-3.61-4.36s-4,1.66-4.22,4.36Z" style="fill:#fff"/><path d="M66.22,65.42a6,6,0,0,0,3.92,1.43c1.92,0,2.92-1,2.92-2.23,0-1.4-1.59-2-3-2.48-1.87-.61-3.91-1.29-3.91-3.21,0-1.64,1.41-3,4-3a6,6,0,0,1,3.5,1.17l-.61.73a4.91,4.91,0,0,0-2.94-1c-1.89,0-2.76,1-2.76,2,0,1.29,1.43,1.78,2.89,2.27,1.92.66,4,1.24,4,3.44,0,1.69-1.48,3.16-4.15,3.16a7.51,7.51,0,0,1-4.5-1.55Z" style="fill:#fff"/><path d="M77.45,50.62h1.13V58a6.23,6.23,0,0,1,4.25-2c2.53,0,3.71,1.4,3.71,4.31v7.21H85.41V60.38c0-2.39-.82-3.51-2.81-3.51-1.46,0-2.51.7-4,2.11v8.48H77.45V50.62Z" style="fill:#fff"/><path d="M98.21,60.41c.05-1.71-.49-3.56-2.89-3.56a7.15,7.15,0,0,0-3.91,1.31l-.51-.77a8.68,8.68,0,0,1,4.55-1.45c2.92,0,3.89,1.92,3.89,4.33v7.19h-.95L98.26,66h-.05a7.64,7.64,0,0,1-4.35,1.73c-1.95,0-3.58-1-3.58-3.09C90.28,62.16,92.76,61,98.21,60.41ZM94,66.85A6.71,6.71,0,0,0,98.21,65V61.2c-5,.54-6.76,1.62-6.76,3.4C91.45,66.22,92.63,66.85,94,66.85Z" style="fill:#fff"/><path d="M103.74,56.21h1l.1,2.08h.08a4.2,4.2,0,0,1,3.48-2.36,2.73,2.73,0,0,1,1.23.23l-.26.94a2.88,2.88,0,0,0-1.12-.19c-1.1,0-2.41.77-3.35,2.88v7.66h-1.13V56.21Z" style="fill:#fff"/><path d="M115.92,55.93c2.92,0,4.71,1.9,4.71,5.2a4.69,4.69,0,0,1-.05.84h-8.85c.05,2.83,1.87,4.87,4.63,4.87a5.77,5.77,0,0,0,3.3-1l.46.8a7.29,7.29,0,0,1-3.86,1.1,5.52,5.52,0,0,1-5.68-5.88C110.58,58.18,113.19,55.93,115.92,55.93Zm3.63,5.25c0-2.88-1.41-4.36-3.61-4.36s-4,1.66-4.22,4.36Z" style="fill:#fff"/><path d="M28.3,144.39v-.22c-2.56-1.69-5-4.31-5-8,0-5,4-8.5,9.1-8.5,5.94,0,9.43,3.87,9.43,9.1,0,3.82-2.94,7.19-5,8.83v.22c3,1.85,6.1,4.2,6.1,8.88,0,5.07-4.25,9.1-10.57,9.1s-11.06-4.09-11.06-9.59C21.33,149.52,25,146.14,28.3,144.39Zm4.09,17.39c4.91,0,8.12-3.16,8.12-7.14,0-5.34-5.23-7.19-10.63-9.32-3.54,2.07-6.16,5-6.16,8.77C23.73,158.4,27.38,161.78,32.39,161.78Zm7.14-25a6.84,6.84,0,0,0-7.14-7.14,6.39,6.39,0,0,0-6.71,6.49c0,5,4.69,6.92,9.27,8.72C37.9,142.49,39.53,139.81,39.53,136.82Z" style="fill:#fff"/><path d="M52.49,150.56H56.2c2.78,0,4.55,1,4.55,3.05a2.8,2.8,0,0,1-2.44,2.75v.08c2,.27,3.28,1.3,3.28,3,0,2.42-2,3.67-5.11,3.67h-4V150.56Zm3.34,5.54c2.82,0,4-.84,4-2.5s-1.33-2.31-3.86-2.31H53.45v4.81Zm.4,6.32c2.73,0,4.42-.92,4.42-2.94,0-1.79-1.6-2.67-4.42-2.67H53.45v5.61Z" style="fill:#fff"/><path d="M64.09,151a.84.84,0,0,1,1.67,0,.84.84,0,0,1-1.67,0Zm.36,3h.92v9.16h-.92Z" style="fill:#fff"/><path d="M69.22,149.42h.92v10.12h0L75.12,154h1.06l-3.25,3.63,3.79,5.54h-1l-3.32-4.91-2.25,2.4v2.5h-.92Z" style="fill:#fff"/><path d="M82.17,153.75c2.38,0,3.84,1.55,3.84,4.24a3.7,3.7,0,0,1,0,.69H78.75a3.73,3.73,0,0,0,3.78,4,4.71,4.71,0,0,0,2.69-.82l.38.65a6,6,0,0,1-3.15.9,4.82,4.82,0,0,1-.27-9.62Zm3,4.28c0-2.35-1.15-3.55-2.94-3.55A3.6,3.6,0,0,0,78.75,158Z" style="fill:#fff"/><path d="M88,161.48a4.88,4.88,0,0,0,3.19,1.17c1.56,0,2.38-.84,2.38-1.81,0-1.15-1.29-1.64-2.44-2-1.52-.5-3.19-1-3.19-2.61,0-1.34,1.15-2.44,3.23-2.44a4.91,4.91,0,0,1,2.86,1l-.5.59a4,4,0,0,0-2.4-.82c-1.54,0-2.25.82-2.25,1.66,0,1,1.17,1.45,2.36,1.85,1.56.54,3.27,1,3.27,2.81,0,1.37-1.21,2.58-3.38,2.58a6.12,6.12,0,0,1-3.67-1.26Z" style="fill:#fff"/><path d="M22.91,92.61a2.16,2.16,0,0,0,1.63.76,1.19,1.19,0,0,0,1.32-1.17c0-.76-.52-1.27-2-1.27V90.3c1.36,0,1.81-.52,1.81-1.19a1,1,0,0,0-1.1-1,1.93,1.93,0,0,0-1.36.65l-.44-.52a2.62,2.62,0,0,1,1.83-.8c1.11,0,1.91.59,1.91,1.62a1.58,1.58,0,0,1-1.16,1.52v0a1.64,1.64,0,0,1,1.38,1.62A1.89,1.89,0,0,1,24.59,94a2.7,2.7,0,0,1-2.1-.9Z" style="fill:#fff"/><path d="M27.84,92.64a2.17,2.17,0,0,0,1.61.73,1.37,1.37,0,0,0,1.4-1.46,1.28,1.28,0,0,0-1.36-1.4,1.8,1.8,0,0,0-1.09.39L28,90.62l.21-3.06h3.18v.71H28.89l-.17,1.89a2,2,0,0,1,1-.26,1.83,1.83,0,0,1,2,2A2.08,2.08,0,0,1,29.53,94a2.8,2.8,0,0,1-2.09-.87Z" style="fill:#fff"/><path d="M32.94,93.24h1.46V88.55H33.24V88a3.77,3.77,0,0,0,1.35-.47h.63v5.69h1.32v.68H32.94Z" style="fill:#fff"/><path d="M40,87.38h.86l2.36,4.11L44,92.84h0c0-.66-.1-1.4-.1-2.08V87.37h.79v6.55h-.86L41.45,89.8l-.71-1.35h0c0,.66.11,1.36.11,2v3.42H40V87.38Z" style="fill:#fff"/><path d="M48.28,89A2.56,2.56,0,1,1,46,91.51,2.32,2.32,0,0,1,48.28,89Zm0,4.41c.84,0,1.4-.75,1.4-1.86s-.56-1.88-1.4-1.88-1.4.76-1.4,1.88S47.45,93.36,48.28,93.36Z" style="fill:#fff"/><path d="M51.8,89.07h.68l.07.88h0A1.66,1.66,0,0,1,54,89a1.21,1.21,0,0,1,.52.1l-.16.72a1.35,1.35,0,0,0-.47-.08c-.41,0-.9.3-1.23,1.12v3.11h-.82V89.07Z" style="fill:#fff"/><path d="M55.4,89.74h-.72v-.62l.76,0,.1-1.36h.69v1.36h1.31v.67H56.23v2.69c0,.6.19.94.75.94a1.77,1.77,0,0,0,.55-.13l.16.62a3,3,0,0,1-.9.18c-1,0-1.39-.66-1.39-1.62V89.74Z" style="fill:#fff"/><path d="M58.64,86.82h.82v1.94l0,1A2.32,2.32,0,0,1,61,89c1,0,1.48.66,1.48,1.9v3.07H61.7V91c0-.91-.28-1.3-.92-1.3s-.84.26-1.33.75v3.51h-.82v-7.1Z" style="fill:#fff"/><path d="M66.16,87.38h3.77v.7H67v2.21h2.49V91H67v2.93h-.83Z" style="fill:#fff"/><path d="M73.41,90.85c0-.62-.21-1.22-1-1.22a2.61,2.61,0,0,0-1.45.52l-.33-.57A3.6,3.6,0,0,1,72.54,89c1.19,0,1.69.79,1.69,2v3h-.68l-.07-.58h0a2.63,2.63,0,0,1-1.6.7,1.32,1.32,0,0,1-1.43-1.38C70.43,91.61,71.35,91.08,73.41,90.85Zm-1.33,2.53a2,2,0,0,0,1.33-.65V91.39c-1.63.2-2.18.6-2.18,1.22A.74.74,0,0,0,72.09,93.38Z" style="fill:#fff"/><path d="M75.63,87.55a.57.57,0,0,1,1.14,0,.57.57,0,0,1-1.14,0Zm.15,1.53h.82v4.85h-.82Z" style="fill:#fff"/><path d="M78.23,89.07h.68L79,90h0a1.66,1.66,0,0,1,1.38-1,1.21,1.21,0,0,1,.52.1l-.16.72a1.36,1.36,0,0,0-.47-.08c-.41,0-.9.3-1.23,1.12v3.11h-.82V89.07Z" style="fill:#fff"/><path d="M83.88,87.49a1.36,1.36,0,0,0-.55-.12c-.46,0-.68.32-.68.94v.77h1v.67h-1v4.18h-.82V89.74h-.66v-.62l.66,0V88.3c0-1,.45-1.61,1.42-1.61a2.21,2.21,0,0,1,.81.16Z" style="fill:#fff"/><path d="M87.15,90.85c0-.62-.21-1.22-1-1.22a2.61,2.61,0,0,0-1.45.52l-.33-.57A3.6,3.6,0,0,1,86.28,89c1.19,0,1.69.79,1.69,2v3h-.68l-.07-.58h0a2.63,2.63,0,0,1-1.6.7,1.32,1.32,0,0,1-1.43-1.38C84.17,91.61,85.08,91.08,87.15,90.85Zm-1.33,2.53a2,2,0,0,0,1.33-.65V91.39c-1.63.2-2.18.6-2.18,1.22A.74.74,0,0,0,85.82,93.38Z" style="fill:#fff"/><path d="M90.42,91.39,89,89.07h.89l.65,1.07c.15.26.31.54.48.81h0c.14-.27.29-.55.44-.81L92,89.07h.86l-1.47,2.4L93,93.92h-.89l-.71-1.13c-.17-.29-.35-.59-.53-.87h0c-.17.28-.33.57-.49.87l-.66,1.13h-.86Z" style="fill:#fff"/><path d="M96.06,87.38H97.7c2,0,3.09,1.17,3.09,3.24s-1.08,3.3-3.05,3.3H96.06Zm1.58,5.87c1.53,0,2.3-1,2.3-2.62s-.77-2.57-2.3-2.57h-.75v5.19Z" style="fill:#fff"/><path d="M102.11,89.07h.68l.07.88h0a1.66,1.66,0,0,1,1.38-1,1.21,1.21,0,0,1,.52.1l-.16.72a1.36,1.36,0,0,0-.47-.08c-.41,0-.9.3-1.23,1.12v3.11h-.82V89.07Z" style="fill:#fff"/><path d="M105.43,87.55a.57.57,0,0,1,1.14,0,.57.57,0,0,1-1.14,0Zm.15,1.53h.82v4.85h-.82Z" style="fill:#fff"/><path d="M107.33,89.07h.85l.92,2.75c.14.48.3,1,.45,1.43h0c.14-.46.3-.95.44-1.43l.92-2.75h.81L110,93.92h-1Z" style="fill:#fff"/><path d="M114.46,89c1.24,0,1.94.89,1.94,2.27a3,3,0,0,1,0,.45H113.1a1.61,1.61,0,0,0,1.62,1.71,2.19,2.19,0,0,0,1.21-.38l.29.54a2.88,2.88,0,0,1-1.6.5,2.56,2.56,0,0,1-.15-5.09Zm1.22,2.19c0-1-.44-1.54-1.2-1.54a1.51,1.51,0,0,0-1.4,1.54Z" style="fill:#fff"/><g style="opacity:0.8999999761581421"><path d="M21.91,106.57c1.53-1.48,2.5-2.46,2.5-3.3a.86.86,0,0,0-.91-1,1.52,1.52,0,0,0-1.08.62l-.56-.56a2.26,2.26,0,0,1,1.76-.85,1.61,1.61,0,0,1,1.74,1.69c0,1-.91,2-2,3.14.29,0,.65-.06.92-.06h1.35v.85H21.91v-.58Z" style="fill:#f1f0f0"/></g><g style="opacity:0.8999999761581421"><path d="M30.26,105.72h-.7v1.42h-.94v-1.42H26.19V105l2.19-3.42h1.19V105h.7ZM28.63,105V103.7c0-.32,0-.82,0-1.15h0c-.14.29-.29.56-.45.86l-1,1.54h1.45Z" style="fill:#f1f0f0"/></g><g style="opacity:0.8999999761581421"><path d="M33,101.47H34.5a2.84,2.84,0,0,1,.05,5.68H33v-5.68Zm1.45,4.86c1.15,0,1.8-.65,1.8-2s-.65-2-1.8-2H34v4h.44Z" style="fill:#f1f0f0"/></g><g style="opacity:0.8999999761581421"><path d="M40.06,102.78A2.25,2.25,0,1,1,38,105,2.06,2.06,0,0,1,40.06,102.78Zm0,3.66c.63,0,1-.56,1-1.42s-.38-1.42-1-1.42-1,.56-1,1.42S39.44,106.44,40.06,106.44Z" style="fill:#f1f0f0"/></g><g style="opacity:0.8999999761581421"><path d="M44.94,102.78a1.76,1.76,0,0,1,1.25.49l-.48.63a1.06,1.06,0,0,0-.72-.31c-.69,0-1.16.56-1.16,1.42s.47,1.42,1.14,1.42a1.41,1.41,0,0,0,.88-.36l.42.63a2.14,2.14,0,0,1-1.4.55A2,2,0,0,1,42.8,105,2.1,2.1,0,0,1,44.94,102.78Z" style="fill:#f1f0f0"/></g><g style="opacity:0.8999999761581421"><path d="M47.09,101h1v3.83h0l1.58-2h1.09l-1.46,1.74,1.61,2.53H49.83l-1.09-1.85-.67.77v1.08h-1V101Z" style="fill:#f1f0f0"/></g><g style="opacity:0.8999999761581421"><path d="M51.66,106a1.89,1.89,0,0,0,1.18.48c.46,0,.68-.22.68-.51s-.46-.51-.91-.69-1.2-.53-1.2-1.24.6-1.28,1.55-1.28a2.29,2.29,0,0,1,1.41.51l-.46.61a1.59,1.59,0,0,0-.94-.36c-.43,0-.62.2-.62.47s.42.47.89.63,1.22.49,1.22,1.29-.58,1.32-1.66,1.32a2.7,2.7,0,0,1-1.61-.59Z" style="fill:#f1f0f0"/></g></g></g></svg>