<svg xmlns="http://www.w3.org/2000/svg" viewBox="0 0 367.22 196.81"><title>compass-weather</title><g id="Layer_2" data-name="Layer 2"><g id="Layer_1-2" data-name="Layer 1"><rect width="367.22" height="196.81" style="fill:#fb8c00"/><path d="M41.15,68a9.06,9.06,0,0,0,6.46,8.64l29.7-.06A8.25,8.25,0,0,0,78,60.07l-.23,0,0-.23A10.4,10.4,0,0,0,78,58.3,10.52,10.52,0,0,0,58,53.58l-.11.23-.21-.15a7.14,7.14,0,0,0-11.34,5.78.93.93,0,0,0,0,.11s0,.08,0,.11v.14l-.13.06A8.93,8.93,0,0,0,41.15,68Zm6-6.15,1.38-.67,0-1.54c0-.05,0-.11,0-.16a5,5,0,0,1,5-5,4.92,4.92,0,0,1,2.92,1l2.27,1.65L60,54.56A8.35,8.35,0,0,1,75.8,58.29a8.45,8.45,0,0,1-.1,1.22L75.34,62l2.52.22a6.08,6.08,0,0,1-.54,12.14l-29.37.06h0A6.85,6.85,0,0,1,43.32,68,6.78,6.78,0,0,1,47.2,61.81Z" style="fill:#fff"/><g style="opacity:0.8999999761581421"><path d="M33.38,135.39a15.06,15.06,0,0,0,11.56,5.15c5.61,0,10.5-4.56,10.5-11.36s-4-10.9-10.3-10.9c-3.24,0-5.35,1.12-7.86,2.84l-2-1.25,1.52-19.75H56.23v2.58H39.39L38.07,118a13.71,13.71,0,0,1,7.53-2.24c7.13,0,12.88,4.1,12.88,13.34,0,9-6.67,14.07-13.47,14.07a17.53,17.53,0,0,1-13.27-5.68Z" style="fill:#fff"/><path d="M65.28,135.12A14.75,14.75,0,0,0,77,140.54c5.68,0,9.84-3.7,9.84-9.31,0-5.81-4.23-9.77-14.73-9.77v-2.58c9.77,0,13.21-4.1,13.21-9.18,0-4.76-3.37-7.86-8.52-7.86a13.61,13.61,0,0,0-9.71,4.62l-1.72-2c2.91-2.84,6.54-5.15,11.43-5.15,6.54,0,11.56,3.7,11.56,10.17,0,5.55-3.43,8.85-8.06,10.43v.27c5.22,1.12,9.58,5,9.58,11,0,7.33-5.61,12-12.88,12a17.48,17.48,0,0,1-13.41-5.94Z" style="fill:#fff"/><path d="M101.91,99.55c3.79,0,7.17,3,7.17,8.16s-3.38,8.1-7.17,8.1-7.17-3-7.17-8.1S98.12,99.55,101.91,99.55Zm0,14.09c2.68,0,4.46-2.39,4.46-5.93s-1.79-6-4.46-6-4.46,2.42-4.46,6S99.27,113.64,101.91,113.64Z" style="fill:#fff"/></g><path d="M275.14,52.33h-2v-.7H278v.7h-2v5.85h-.84V52.33Z" style="fill:#fff"/><path d="M280.28,53.21A2.57,2.57,0,1,1,278,55.76,2.32,2.32,0,0,1,280.28,53.21Zm0,4.41c.84,0,1.4-.75,1.4-1.86s-.56-1.88-1.4-1.88-1.4.76-1.4,1.88S279.45,57.62,280.28,57.62Z" style="fill:#fff"/><path d="M283.8,53.33h.68l.07.7h0a2.13,2.13,0,0,1,1.51-.82,1.27,1.27,0,0,1,1.34.93,2.29,2.29,0,0,1,1.6-.93c1,0,1.48.66,1.48,1.9v3.07h-.82v-3c0-.91-.29-1.3-.9-1.3a1.78,1.78,0,0,0-1.22.75v3.51h-.82v-3c0-.91-.29-1.3-.91-1.3a1.82,1.82,0,0,0-1.22.75v3.51h-.82V53.33Z" style="fill:#fff"/><path d="M294,53.21a2.57,2.57,0,1,1-2.24,2.55A2.32,2.32,0,0,1,294,53.21Zm0,4.41c.84,0,1.4-.75,1.4-1.86s-.56-1.88-1.4-1.88-1.4.76-1.4,1.88S293.13,57.62,294,57.62Z" style="fill:#fff"/><path d="M297.48,53.33h.68l.07.88h0a1.66,1.66,0,0,1,1.38-1,1.21,1.21,0,0,1,.52.1L300,54a1.36,1.36,0,0,0-.47-.08c-.41,0-.9.3-1.23,1.12v3.11h-.82Z" style="fill:#fff"/><path d="M300.94,53.33h.68l.07.88h0a1.66,1.66,0,0,1,1.38-1,1.21,1.21,0,0,1,.52.1l-.16.72a1.36,1.36,0,0,0-.47-.08c-.41,0-.9.3-1.23,1.12v3.11h-.82Z" style="fill:#fff"/><path d="M306.19,53.21a2.57,2.57,0,1,1-2.24,2.55A2.32,2.32,0,0,1,306.19,53.21Zm0,4.41c.84,0,1.4-.75,1.4-1.86s-.56-1.88-1.4-1.88-1.4.76-1.4,1.88S305.36,57.62,306.19,57.62Z" style="fill:#fff"/><path d="M309.09,53.33h.84l.72,2.8c.11.46.2.9.29,1.35h0c.11-.45.21-.9.33-1.35l.75-2.8h.8l.76,2.8c.12.46.23.9.34,1.35h0c.11-.45.2-.89.3-1.35l.71-2.8h.78l-1.3,4.85h-1l-.7-2.6c-.12-.46-.21-.91-.33-1.4h0c-.11.49-.21.95-.34,1.41l-.68,2.6h-1Z" style="fill:#fff"/><path d="M288.85,63.78h2c1.45,0,2.41.49,2.41,1.93s-1,2-2.41,2h-1.18v2.6h-.83Zm1.9,3.27c1.14,0,1.69-.42,1.69-1.35s-.56-1.26-1.69-1.26h-1.08v2.6h1.08Z" style="fill:#fff"/><path d="M294.6,63.78h1l1.27,3.51.48,1.34h0l.46-1.34,1.26-3.51h1v6.55h-.79v-3.6c0-.58.06-1.36.11-1.94h0l-.53,1.46-1.26,3.42h-.47l-1.27-3.42-.52-1.46h0c0,.58.11,1.36.11,1.94v3.6h-.77V63.78Z" style="fill:#fff"/><path d="M285.73,130.89H278.5v-.84h8.43v.56c-3.28,4.36-4.1,7.79-4.31,13.15h-1C281.8,138.23,283,134.75,285.73,130.89Z" style="fill:#fff"/><path d="M288.86,136.85c0-4.55,1.48-7.06,4.1-7.06s4.1,2.51,4.1,7.06S295.57,144,293,144,288.86,141.42,288.86,136.85Zm7.23,0c0-4.18-1.22-6.24-3.13-6.24s-3.13,2.06-3.13,6.24,1.24,6.35,3.13,6.35S296.09,141,296.09,136.85Z" style="fill:#fff"/><path d="M301.94,136.5c0-2.06.84-3.22,2.2-3.22s2.2,1.15,2.2,3.22-.84,3.25-2.2,3.25S301.94,138.6,301.94,136.5Zm3.8,0c0-1.73-.62-2.7-1.59-2.7s-1.59,1-1.59,2.7.63,2.73,1.59,2.73S305.74,138.24,305.74,136.5Zm-1.33,7.45,5.74-10.66h.59L305,143.95Zm4.45-3.25c0-2.06.84-3.22,2.2-3.22s2.2,1.15,2.2,3.22-.84,3.25-2.2,3.25S308.86,142.79,308.86,140.7Zm3.79,0c0-1.73-.62-2.7-1.59-2.7s-1.59,1-1.59,2.7.62,2.73,1.59,2.73S312.65,142.44,312.65,140.7Z" style="fill:#fff"/><path d="M290.87,110.08a1.45,1.45,0,0,1-2.9,0c0-.8,1.45-2.07,1.45-2.07S290.87,109.28,290.87,110.08Z" style="fill:#fff"/><path d="M295,113.83a1.45,1.45,0,1,1-2.9,0c0-.8,1.45-2.06,1.45-2.06S295,113,295,113.83Z" style="fill:#fff"/><path d="M299,111.26a1.45,1.45,0,0,1-2.9,0c0-.8,1.45-2.06,1.45-2.06S299,110.46,299,111.26Z" style="fill:#fff"/><path d="M303.46,93.59h-.06v-.06a7.22,7.22,0,0,0-13.6-4.28l0,.06-.06,0a4.92,4.92,0,0,0-7.83,4s0,.05,0,.08,0,0,0,.07v0l0,0A6.14,6.14,0,0,0,278.34,99a6.23,6.23,0,0,0,4.45,5.94h0l20.16,0a5.68,5.68,0,0,0,.5-11.34Zm-19.93-.23s0-.08,0-.11a3.31,3.31,0,0,1,3.29-3.3,3.25,3.25,0,0,1,1.93.63l1.63,1.18.9-1.8a5.58,5.58,0,0,1,10.57,2.5,5.71,5.71,0,0,1-.07.81l-.26,1.79,1.8.16a4,4,0,0,1-.36,8.06l-19.9,0h0a4.54,4.54,0,0,1-.48-8.39l1-.48Z" style="fill:#fff"/><path d="M207.37,52.33h-2v-.7h4.79v.7h-2v5.85h-.84V52.33Z" style="fill:#fff"/><path d="M212.51,53.21a2.57,2.57,0,1,1-2.24,2.55A2.32,2.32,0,0,1,212.51,53.21Zm0,4.41c.84,0,1.4-.75,1.4-1.86s-.56-1.88-1.4-1.88-1.4.76-1.4,1.88S211.68,57.62,212.51,57.62Z" style="fill:#fff"/><path d="M216,53.33h.68l.07.7h0a2.13,2.13,0,0,1,1.51-.82,1.28,1.28,0,0,1,1.34.93,2.29,2.29,0,0,1,1.6-.93c1,0,1.48.66,1.48,1.9v3.07h-.82v-3c0-.91-.29-1.3-.9-1.3a1.78,1.78,0,0,0-1.22.75v3.51H219v-3c0-.91-.29-1.3-.91-1.3a1.82,1.82,0,0,0-1.22.75v3.51H216V53.33Z" style="fill:#fff"/><path d="M226.18,53.21a2.57,2.57,0,1,1-2.24,2.55A2.32,2.32,0,0,1,226.18,53.21Zm0,4.41c.84,0,1.4-.75,1.4-1.86s-.56-1.88-1.4-1.88-1.4.76-1.4,1.88S225.36,57.62,226.18,57.62Z" style="fill:#fff"/><path d="M229.71,53.33h.68l.07.88h0a1.66,1.66,0,0,1,1.38-1,1.21,1.21,0,0,1,.52.1l-.16.72a1.35,1.35,0,0,0-.47-.08c-.41,0-.9.3-1.23,1.12v3.11h-.82V53.33Z" style="fill:#fff"/><path d="M233.17,53.33h.68l.07.88h0a1.66,1.66,0,0,1,1.38-1,1.21,1.21,0,0,1,.52.1l-.16.72a1.36,1.36,0,0,0-.47-.08c-.41,0-.9.3-1.23,1.12v3.11h-.82V53.33Z" style="fill:#fff"/><path d="M238.41,53.21a2.57,2.57,0,1,1-2.24,2.55A2.32,2.32,0,0,1,238.41,53.21Zm0,4.41c.84,0,1.4-.75,1.4-1.86s-.56-1.88-1.4-1.88-1.4.76-1.4,1.88S237.59,57.62,238.41,57.62Z" style="fill:#fff"/><path d="M241.32,53.33h.84l.72,2.8c.11.46.2.9.29,1.35h0c.11-.45.21-.9.33-1.35l.75-2.8h.8l.76,2.8c.12.46.23.9.34,1.35h0c.11-.45.2-.89.3-1.35l.71-2.8H248l-1.3,4.85h-1l-.7-2.6c-.12-.46-.21-.91-.33-1.4h0c-.11.49-.21.95-.34,1.41l-.68,2.6h-1Z" style="fill:#fff"/><path d="M224.23,68.33h-2.39l-.63,2h-.85l2.21-6.55h.94l2.22,6.55h-.89Zm-.21-.67-.31-1c-.24-.73-.45-1.45-.66-2.21h0c-.2.76-.41,1.48-.65,2.21l-.31,1Z" style="fill:#fff"/><path d="M226.66,63.78h1l1.27,3.51.48,1.34h0l.46-1.34,1.26-3.51h1v6.55h-.79v-3.6c0-.58.06-1.36.11-1.94h0l-.53,1.46-1.26,3.42h-.47l-1.27-3.42-.52-1.46h0c0,.58.11,1.36.11,1.94v3.6h-.77Z" style="fill:#fff"/><path d="M226.83,107.62a7.36,7.36,0,1,1,7.36-7.36A7.36,7.36,0,0,1,226.83,107.62Zm0-13a5.62,5.62,0,1,0,5.62,5.62A5.63,5.63,0,0,0,226.83,94.64Z" style="fill:#fff"/><rect x="225.97" y="85.13" width="1.73" height="4.83" style="fill:#fff"/><rect x="225.97" y="110.56" width="1.73" height="4.83" style="fill:#fff"/><rect x="237.14" y="99.4" width="4.83" height="1.73" style="fill:#fff"/><rect x="211.71" y="99.4" width="4.83" height="1.73" style="fill:#fff"/><rect x="233.41" y="90.4" width="4.83" height="1.73" transform="translate(4.54 193.48) rotate(-45)" style="fill:#fff"/><rect x="215.43" y="108.38" width="4.83" height="1.73" transform="translate(-13.45 186.04) rotate(-45)" style="fill:#fff"/><rect x="234.95" y="106.83" width="1.73" height="4.83" transform="translate(-8.16 198.82) rotate(-45.02)" style="fill:#fff"/><rect x="216.98" y="88.85" width="1.73" height="4.83" transform="translate(-0.74 180.74) rotate(-44.99)" style="fill:#fff"/><path d="M213.51,142.93h3.22V131.56h-2.45v-.64a8.28,8.28,0,0,0,2.64-.86h.77v12.87h3v.84h-7.17Z" style="fill:#fff"/><path d="M223,136.85c0-4.55,1.48-7.06,4.1-7.06s4.1,2.51,4.1,7.06-1.48,7.17-4.1,7.17S223,141.42,223,136.85Zm7.23,0c0-4.18-1.22-6.24-3.13-6.24s-3.13,2.06-3.13,6.24,1.24,6.35,3.13,6.35S230.24,141,230.24,136.85Z" style="fill:#fff"/><path d="M236.1,136.5c0-2.06.84-3.22,2.2-3.22s2.2,1.15,2.2,3.22-.84,3.25-2.2,3.25S236.1,138.6,236.1,136.5Zm3.79,0c0-1.73-.62-2.7-1.59-2.7s-1.59,1-1.59,2.7.63,2.73,1.59,2.73S239.89,138.24,239.89,136.5Zm-1.33,7.45,5.74-10.66h.59l-5.74,10.66ZM243,140.7c0-2.06.84-3.22,2.2-3.22s2.2,1.15,2.2,3.22-.84,3.25-2.2,3.25S243,142.79,243,140.7Zm3.79,0c0-1.73-.62-2.7-1.59-2.7s-1.59,1-1.59,2.7.62,2.73,1.59,2.73S246.8,142.44,246.8,140.7Z" style="fill:#fff"/><path d="M148.79,52.86h-2v-.7h4.79v.7h-2v5.85h-.84V52.86Z" style="fill:#fff"/><path d="M153.93,53.74a2.56,2.56,0,1,1-2.25,2.55A2.32,2.32,0,0,1,153.93,53.74Zm0,4.41c.84,0,1.4-.75,1.4-1.86s-.56-1.88-1.4-1.88-1.4.76-1.4,1.88S153.1,58.15,153.93,58.15Z" style="fill:#fff"/><path d="M157.45,53.86h.68l.07.7h0a2.29,2.29,0,0,1,1.63-.82c1,0,1.48.66,1.48,1.9v3.07h-.82v-3c0-.91-.28-1.3-.92-1.3s-.84.26-1.33.75v3.51h-.82V53.86Z" style="fill:#fff"/><path d="M162.76,52.33a.57.57,0,0,1,1.14,0,.57.57,0,0,1-1.14,0Zm.15,1.53h.82v4.85h-.82Z" style="fill:#fff"/><path d="M165.7,58.54v0a.89.89,0,0,1-.43-.79,1.13,1.13,0,0,1,.53-.9v0a1.71,1.71,0,0,1,1.2-3,1.93,1.93,0,0,1,.69.12h1.69v.63h-1a1.41,1.41,0,0,1,.4,1A1.66,1.66,0,0,1,167,57.17a1.71,1.71,0,0,1-.73-.17.73.73,0,0,0-.31.58c0,.31.2.53.86.53h.94c1.13,0,1.7.35,1.7,1.16s-.95,1.68-2.45,1.68c-1.19,0-2-.47-2-1.31A1.4,1.4,0,0,1,165.7,58.54Zm1.42,1.84c.93,0,1.54-.48,1.54-1s-.35-.6-1-.6h-.84a2.4,2.4,0,0,1-.63-.08,1,1,0,0,0-.5.82C165.71,60,166.24,60.38,167.12,60.38Zm.91-4.91a1,1,0,1,0-2.06,0,1,1,0,1,0,2.06,0Z" style="fill:#fff"/><path d="M170.39,51.6h.82v1.94l0,1a2.32,2.32,0,0,1,1.62-.8c1,0,1.48.66,1.48,1.9v3.07h-.82v-3c0-.91-.28-1.3-.92-1.3s-.84.26-1.33.75v3.51h-.82V51.6Z" style="fill:#fff"/><path d="M176,54.53h-.72v-.62l.76,0,.1-1.36h.69v1.36h1.31v.67h-1.31v2.69c0,.6.19.94.75.94a1.76,1.76,0,0,0,.55-.13l.16.62a3,3,0,0,1-.9.18c-1,0-1.39-.66-1.39-1.62V54.53Z" style="fill:#fff"/><path d="M160.39,110.08a1.45,1.45,0,0,1-2.9,0c0-.8,1.45-2.07,1.45-2.07S160.39,109.28,160.39,110.08Z" style="fill:#fff"/><path d="M164.49,113.83a1.45,1.45,0,1,1-2.9,0c0-.8,1.45-2.06,1.45-2.06S164.49,113,164.49,113.83Z" style="fill:#fff"/><path d="M168.53,111.26a1.45,1.45,0,0,1-2.9,0c0-.8,1.45-2.06,1.45-2.06S168.53,110.46,168.53,111.26Z" style="fill:#fff"/><path d="M173,93.59h-.06v-.06a7.07,7.07,0,0,0,.08-1,7.22,7.22,0,0,0-13.69-3.23l0,.06-.06,0a4.92,4.92,0,0,0-7.83,4s0,.05,0,.08a.56.56,0,0,1,0,.07v0l0,0A6.15,6.15,0,0,0,147.86,99a6.23,6.23,0,0,0,4.45,5.94h0l20.16,0a5.68,5.68,0,0,0,.5-11.34ZM153,93.36a.92.92,0,0,0,0-.11,3.31,3.31,0,0,1,3.29-3.3,3.25,3.25,0,0,1,1.93.63l1.63,1.18.9-1.8a5.57,5.57,0,0,1,10.51,3.31L171,95.07l1.8.16a4,4,0,0,1-.36,8.06l-19.9,0h0a4.54,4.54,0,0,1-.48-8.39l1-.48Z" style="fill:#fff"/><path d="M148,141.51a4.89,4.89,0,0,0,3.75,1.67,3.49,3.49,0,0,0,3.41-3.69,3.2,3.2,0,0,0-3.35-3.54,4.17,4.17,0,0,0-2.55.92l-.67-.41.49-6.42h6.33v.84H150l-.43,5a4.45,4.45,0,0,1,2.45-.73c2.32,0,4.18,1.33,4.18,4.33a4.36,4.36,0,0,1-4.38,4.57,5.69,5.69,0,0,1-4.31-1.85Z" style="fill:#fff"/><path d="M158.22,136.85c0-4.55,1.48-7.06,4.1-7.06s4.1,2.51,4.1,7.06-1.48,7.17-4.1,7.17S158.22,141.42,158.22,136.85Zm7.23,0c0-4.18-1.22-6.24-3.13-6.24s-3.13,2.06-3.13,6.24,1.24,6.35,3.13,6.35S165.45,141,165.45,136.85Z" style="fill:#fff"/><path d="M171.31,136.5c0-2.06.84-3.22,2.2-3.22s2.2,1.15,2.2,3.22-.84,3.25-2.2,3.25S171.31,138.6,171.31,136.5Zm3.79,0c0-1.73-.62-2.7-1.59-2.7s-1.59,1-1.59,2.7.62,2.73,1.59,2.73S175.1,138.24,175.1,136.5Zm-1.33,7.45,5.74-10.66h.59l-5.74,10.66Zm4.45-3.25c0-2.06.84-3.22,2.2-3.22s2.2,1.15,2.2,3.22-.84,3.25-2.2,3.25S178.22,142.79,178.22,140.7Zm3.79,0c0-1.73-.62-2.7-1.59-2.7s-1.59,1-1.59,2.7.62,2.73,1.59,2.73S182,142.44,182,140.7Z" style="fill:#fff"/><g style="opacity:0.8999999761581421"><path d="M141.92,134.35c-.25,2-1.54,2.45-1.54,3.87a1.6,1.6,0,0,0,3.2,0c0-1.41-1.29-1.83-1.54-3.87A.06.06,0,0,0,141.92,134.35Z" style="fill:#fff"/></g><g style="opacity:0.8999999761581421"><path d="M208.47,134.35c-.25,2-1.54,2.45-1.54,3.87a1.6,1.6,0,0,0,3.2,0c0-1.41-1.29-1.83-1.54-3.87A.06.06,0,0,0,208.47,134.35Z" style="fill:#fff"/></g><g style="opacity:0.8999999761581421"><path d="M273.72,134.35c-.25,2-1.54,2.45-1.54,3.87a1.6,1.6,0,0,0,3.2,0c0-1.41-1.29-1.83-1.54-3.87C273.82,134.29,273.72,134.29,273.72,134.35Z" style="fill:#fff"/></g></g></g></svg>