<svg xmlns="http://www.w3.org/2000/svg" viewBox="0 0 175.1 196.81"><title>compass-uber</title><g id="Layer_2" data-name="Layer 2"><g id="Layer_1-2" data-name="Layer 1"><rect width="175.1" height="196.81" style="fill:#29343d"/><path d="M26.24,31.83h1.18v9.39c0,4.1,2.1,5.34,4.48,5.34s4.61-1.24,4.61-5.34V31.83h1.1v9.51c0,4.82-2.79,6.21-5.71,6.21s-5.65-1.38-5.65-6.21V31.83Z" style="fill:#fff"/><path d="M42.39,30.42h1.13v4.87l-.05,2.2a7.33,7.33,0,0,1,4.25-1.76c3.28,0,4.91,2.25,4.91,5.74,0,3.82-2.53,6.07-5.43,6.07a6.7,6.7,0,0,1-3.68-1.34h-.05l-.13,1.06h-.95Zm4.76,16.21c2.48,0,4.27-2.11,4.27-5.15,0-2.76-1.07-4.83-3.89-4.83a6.68,6.68,0,0,0-4,1.85v6.67A6.21,6.21,0,0,0,47.15,46.63Z" style="fill:#fff"/><path d="M60.64,35.74c2.92,0,4.71,1.9,4.71,5.2a4.68,4.68,0,0,1-.05.84H56.44c.05,2.83,1.87,4.87,4.63,4.87a5.78,5.78,0,0,0,3.3-1l.46.8A7.28,7.28,0,0,1,61,47.54a5.52,5.52,0,0,1-5.68-5.88C55.29,38,57.9,35.74,60.64,35.74ZM64.27,41c0-2.88-1.41-4.36-3.61-4.36s-4,1.66-4.22,4.36Z" style="fill:#fff"/><path d="M68.68,36h1l.1,2.08h.08a4.2,4.2,0,0,1,3.48-2.37,2.73,2.73,0,0,1,1.23.23l-.26.94a2.88,2.88,0,0,0-1.12-.19c-1.1,0-2.41.77-3.35,2.88v7.66H68.68V36Z" style="fill:#fff"/><path d="M79.94,39.27l-4.71-7.45h1.28l2.76,4.54c.46.7.82,1.26,1.38,2.11h.1c.49-.84.79-1.4,1.25-2.11l2.76-4.54H86l-4.71,7.5,5.07,7.94H85.06l-2.94-4.73c-.46-.77-.95-1.52-1.56-2.46h-.1c-.54.94-1,1.69-1.43,2.46l-2.94,4.73h-1.2Z" style="fill:#fff"/><g style="opacity:0.8999999761581421"><path d="M44.58,79.06H26.21V76.94H47.63v1.42c-8.34,11.06-10.41,19.79-11,33.41H34.06C34.6,97.7,37.54,88.87,44.58,79.06Z" style="fill:#fff"/></g><path d="M51,100.05h1.35l2.88,7.39,1.08,2.79h.08l1-2.79,2.88-7.39h1.36v12.58h-.94v-8.27c0-1,.06-2.35.13-3.4h-.08l-1.08,2.77-2.94,7.52h-.85l-3-7.52L51.85,101h-.08c.06,1.05.13,2.37.13,3.4v8.27H51V100.05Z" style="fill:#fff"/><path d="M65.26,100.51a.84.84,0,0,1,1.67,0,.84.84,0,0,1-1.67,0Zm.35,3h.92v9.16h-.92Z" style="fill:#fff"/><path d="M70.39,103.47h.79l.08,1.41h.06a5,5,0,0,1,3.44-1.64c2.06,0,3,1.15,3,3.51v5.88h-.92v-5.76c0-1.95-.67-2.86-2.29-2.86-1.19,0-2,.57-3.28,1.72v6.91h-.92v-9.16Z" style="fill:#fff"/><path d="M24.5,136.4h1v3.26c0,1.23.46,1.64,1.15,1.64s1.18-.41,1.18-1.64V136.4h1v3.19c0,1.87-.82,2.6-2.15,2.6s-2.15-.73-2.15-2.6V136.4Z" style="fill:#b0bec5"/><path d="M30.13,136h1v1.58l0,.71a2,2,0,0,1,1.23-.53c1.07,0,1.69.85,1.69,2.16,0,1.47-.88,2.31-1.82,2.31a1.71,1.71,0,0,1-1.16-.54h0l-.09.43h-.79V136ZM32,141.36c.56,0,1-.5,1-1.47s-.28-1.35-.92-1.35a1.36,1.36,0,0,0-.94.48v2A1.34,1.34,0,0,0,32,141.36Z" style="fill:#b0bec5"/><path d="M36.7,137.71c1.15,0,1.76.83,1.76,2a2.22,2.22,0,0,1,0,.47H35.71A1.22,1.22,0,0,0,37,141.41a1.78,1.78,0,0,0,1-.31l.34.63a2.69,2.69,0,0,1-1.46.46,2.25,2.25,0,0,1-.14-4.47Zm.9,1.86c0-.68-.29-1.09-.87-1.09s-.94.37-1,1.09Z" style="fill:#b0bec5"/><path d="M39.42,137.82h.83l.07.76h0a1.45,1.45,0,0,1,1.21-.86,1.07,1.07,0,0,1,.49.09l-.17.87a1.39,1.39,0,0,0-.44-.07c-.34,0-.75.23-1,.88v2.6h-1v-4.26Z" style="fill:#b0bec5"/><path d="M42.94,140.67a2.26,2.26,0,0,0,1.48.64c.64,0,1-.29,1-.73s-.36-.62-.88-.83l-.78-.34a1.63,1.63,0,0,1-1.15-1.51,1.73,1.73,0,0,1,1.91-1.6,2.5,2.5,0,0,1,1.75.72l-.51.64a1.84,1.84,0,0,0-1.23-.49c-.54,0-.9.25-.9.67s.43.61.9.8l.77.32a1.59,1.59,0,0,1,1.15,1.54,1.81,1.81,0,0,1-2,1.68,3,3,0,0,1-2-.83Z" style="fill:#b0bec5"/><path d="M47.44,136.4h1v3.26c0,1.23.46,1.64,1.15,1.64s1.18-.41,1.18-1.64V136.4h1v3.19c0,1.87-.83,2.6-2.15,2.6s-2.15-.73-2.15-2.6Z" style="fill:#b0bec5"/><path d="M52.31,136.4h1.07l.8,2.86c.18.64.31,1.2.5,1.85h0c.19-.65.32-1.21.5-1.85L56,136.4h1l-1.76,5.68H54.08Z" style="fill:#b0bec5"/><path d="M32,153.2H24.75v-.84h8.43v.56c-3.28,4.35-4.1,7.79-4.31,13.15h-1C28.06,160.54,29.22,157.06,32,153.2Z" style="fill:#b0bec5"/><path d="M69.32,136.4h1v3.26c0,1.23.46,1.64,1.15,1.64s1.18-.41,1.18-1.64V136.4h1v3.19c0,1.87-.83,2.6-2.15,2.6s-2.15-.73-2.15-2.6Z" style="fill:#b0bec5"/><path d="M74.95,136h1v1.58l0,.71a2,2,0,0,1,1.23-.53c1.07,0,1.68.85,1.68,2.16,0,1.47-.88,2.31-1.82,2.31a1.71,1.71,0,0,1-1.16-.54h0l-.09.43h-.79V136Zm1.86,5.41c.56,0,1-.5,1-1.47s-.28-1.35-.92-1.35a1.36,1.36,0,0,0-.94.48v2A1.34,1.34,0,0,0,76.8,141.36Z" style="fill:#b0bec5"/><path d="M81.52,137.71c1.15,0,1.76.83,1.76,2a2.07,2.07,0,0,1,0,.47H80.53a1.22,1.22,0,0,0,1.26,1.21,1.78,1.78,0,0,0,1-.31l.34.63a2.68,2.68,0,0,1-1.46.46,2.25,2.25,0,0,1-.14-4.47Zm.89,1.86c0-.68-.29-1.09-.87-1.09s-.94.37-1,1.09Z" style="fill:#b0bec5"/><path d="M84.24,137.82h.82l.07.76h0a1.45,1.45,0,0,1,1.21-.86,1.06,1.06,0,0,1,.49.09l-.17.87a1.36,1.36,0,0,0-.44-.07c-.34,0-.75.23-1,.88v2.6h-1v-4.26Z" style="fill:#b0bec5"/><path d="M87.56,136.4h1.81c1.17,0,2,.36,2,1.4a1.24,1.24,0,0,1-1,1.23v0a1.3,1.3,0,0,1,1.27,1.35c0,1.14-.93,1.67-2.18,1.67h-2V136.4Zm1.73,2.35c.79,0,1.13-.3,1.13-.83s-.37-.74-1.11-.74h-.74v1.57Zm.13,2.54c.83,0,1.3-.31,1.3-1s-.45-.87-1.3-.87h-.85v1.82Z" style="fill:#b0bec5"/><path d="M92.65,136h1V141c0,.24.11.33.22.33l.16,0,.13.75a1.36,1.36,0,0,1-.53.09c-.71,0-1-.46-1-1.2v-5Z" style="fill:#b0bec5"/><path d="M97.33,139.35c0-.45-.2-.83-.77-.83a2.37,2.37,0,0,0-1.2.42l-.36-.67a3.3,3.3,0,0,1,1.75-.56c1.07,0,1.59.65,1.59,1.84v2.53h-.82l-.08-.47h0a2.07,2.07,0,0,1-1.32.57,1.2,1.2,0,0,1-1.27-1.25C94.82,140,95.58,139.55,97.33,139.35Zm-.93,2a1.34,1.34,0,0,0,.93-.47v-1c-1.15.15-1.54.45-1.54.88S96,141.4,96.4,141.4Z" style="fill:#b0bec5"/><path d="M101.4,137.71a1.76,1.76,0,0,1,1.25.49l-.48.63a1.06,1.06,0,0,0-.72-.31c-.69,0-1.16.56-1.16,1.43s.47,1.41,1.14,1.41a1.41,1.41,0,0,0,.88-.37l.42.63a2.14,2.14,0,0,1-1.4.55A2,2,0,0,1,99.26,140,2.1,2.1,0,0,1,101.4,137.71Z" style="fill:#b0bec5"/><path d="M103.55,136h1v3.83h0l1.58-2h1.1l-1.46,1.74,1.6,2.53h-1.09l-1.09-1.85-.67.76v1.09h-1V136Z" style="fill:#b0bec5"/><path d="M69.72,163.82a4.89,4.89,0,0,0,3.75,1.67,3.49,3.49,0,0,0,3.41-3.69,3.2,3.2,0,0,0-3.35-3.54,4.17,4.17,0,0,0-2.55.92l-.66-.41.49-6.41h6.33v.84H71.68l-.43,5a4.44,4.44,0,0,1,2.45-.73c2.32,0,4.18,1.33,4.18,4.33a4.36,4.36,0,0,1-4.38,4.57,5.7,5.7,0,0,1-4.31-1.85Z" style="fill:#b0bec5"/><path d="M121.67,136.4h1v3.26c0,1.23.46,1.64,1.15,1.64s1.18-.41,1.18-1.64V136.4h1v3.19c0,1.87-.83,2.6-2.15,2.6s-2.15-.73-2.15-2.6Z" style="fill:#b0bec5"/><path d="M127.29,136h1v1.58l0,.71a2,2,0,0,1,1.23-.53c1.07,0,1.68.85,1.68,2.16,0,1.47-.88,2.31-1.82,2.31a1.71,1.71,0,0,1-1.16-.54h0l-.09.43h-.79V136Zm1.86,5.41c.56,0,1-.5,1-1.47s-.28-1.35-.92-1.35a1.36,1.36,0,0,0-.94.48v2A1.34,1.34,0,0,0,129.15,141.36Z" style="fill:#b0bec5"/><path d="M133.86,137.71c1.15,0,1.76.83,1.76,2a2.07,2.07,0,0,1,0,.47h-2.71a1.22,1.22,0,0,0,1.26,1.21,1.78,1.78,0,0,0,1-.31l.34.63a2.68,2.68,0,0,1-1.46.46,2.25,2.25,0,0,1-.14-4.47Zm.9,1.86c0-.68-.29-1.09-.87-1.09s-.94.37-1,1.09Z" style="fill:#b0bec5"/><path d="M136.58,137.82h.82l.07.76h0a1.45,1.45,0,0,1,1.21-.86,1.06,1.06,0,0,1,.49.09l-.17.87a1.36,1.36,0,0,0-.44-.07c-.34,0-.75.23-1,.88v2.6h-1v-4.26Z" style="fill:#b0bec5"/><path d="M140.91,139.16l-1.51-2.75h1.12l.63,1.26c.14.26.26.53.44.87h0c.14-.34.25-.61.38-.87l.6-1.26h1.07l-1.51,2.8,1.61,2.88h-1.12l-.69-1.34-.46-.93h0c-.15.35-.28.63-.42.93l-.68,1.34H139.3Z" style="fill:#b0bec5"/><path d="M144.6,136.4h1v4.83H148v.85H144.6Z" style="fill:#b0bec5"/><path d="M122.07,163.82a4.89,4.89,0,0,0,3.75,1.67,3.49,3.49,0,0,0,3.41-3.69,3.2,3.2,0,0,0-3.35-3.54,4.17,4.17,0,0,0-2.55.92l-.66-.41.49-6.41h6.33v.84H124l-.43,5a4.44,4.44,0,0,1,2.45-.73c2.32,0,4.18,1.33,4.18,4.33a4.36,4.36,0,0,1-4.38,4.57,5.7,5.7,0,0,1-4.31-1.85Z" style="fill:#b0bec5"/></g></g></svg>