<svg xmlns="http://www.w3.org/2000/svg" viewBox="0 0 175.1 196.81"><title>compass-clock</title><g id="Layer_2" data-name="Layer 2"><g id="Layer_1-2" data-name="Layer 1"><rect width="175.1" height="196.81" style="fill:#09bcd4"/><rect x="83.21" y="26.2" width="2.48" height="8.17" style="fill:#fff"/><rect x="83.21" y="111.14" width="2.48" height="8.17" style="fill:#fff"/><rect x="122.84" y="71.51" width="8.17" height="2.49" style="fill:#fff"/><rect x="37.9" y="71.51" width="8.17" height="2.49" style="fill:#fff"/><rect x="62.39" y="31.9" width="1.66" height="8.17" transform="translate(-9.52 36.44) rotate(-30.01)" style="fill:#fff"/><rect x="104.86" y="105.45" width="1.66" height="8.17" transform="translate(-40.61 67.52) rotate(-30)" style="fill:#fff"/><rect x="117.13" y="50.71" width="8.17" height="1.66" transform="translate(-9.53 67.5) rotate(-29.99)" style="fill:#fff"/><rect x="43.56" y="93.18" width="8.17" height="1.66" transform="translate(-40.61 36.41) rotate(-29.99)" style="fill:#fff"/><rect x="46.83" y="47.44" width="1.66" height="8.17" transform="translate(-20.79 67.04) rotate(-60)" style="fill:#fff"/><rect x="120.41" y="89.89" width="1.66" height="8.17" transform="translate(-20.77 151.98) rotate(-60)" style="fill:#fff"/><rect x="101.6" y="35.15" width="8.17" height="1.66" transform="translate(21.71 109.55) rotate(-60.02)" style="fill:#fff"/><rect x="59.13" y="108.72" width="8.17" height="1.66" transform="translate(-63.26 109.56) rotate(-60.02)" style="fill:#fff"/><polygon points="84.18 75.58 63.96 63.14 65.7 60.32 84.73 72.02 121.33 62.88 122.13 66.1 84.18 75.58" style="fill:#3d3e44"/><rect x="59.55" y="86.97" width="32.98" height="1.97" transform="translate(-38.42 108.42) rotate(-59.3)" style="fill:#f9e23a"/><path d="M66.78,107a3.37,3.37,0,1,1,3.37-3.37A3.37,3.37,0,0,1,66.78,107Zm0-4.76a1.4,1.4,0,1,0,1.4,1.39A1.4,1.4,0,0,0,66.78,102.22Z" style="fill:#f9e23a"/><circle cx="84.82" cy="73.8" r="3.87" style="fill:#f9e23a"/><path d="M52.29,161.34h4.84V144.23H53.45v-1a12.44,12.44,0,0,0,4-1.29h1.16v19.37h4.49v1.26H52.29v-1.26Z" style="fill:#fff"/><path d="M66.59,152.2c0-6.85,2.23-10.62,6.17-10.62s6.17,3.78,6.17,10.62S76.7,163,72.76,163,66.59,159.08,66.59,152.2Zm10.88,0c0-6.3-1.84-9.4-4.71-9.4S68,145.9,68,152.2s1.87,9.56,4.71,9.56S77.47,158.5,77.47,152.2Z" style="fill:#fff"/><path d="M84.06,147.71a1.47,1.47,0,0,1,0,2.94,1.47,1.47,0,0,1,0-2.94Zm0,12.33a1.47,1.47,0,0,1,0,2.94,1.47,1.47,0,0,1,0-2.94Z" style="fill:#fff"/><path d="M90.29,161.34h4.84V144.23H91.46v-1a12.44,12.44,0,0,0,4-1.29h1.16v19.37h4.49v1.26H90.29Z" style="fill:#fff"/><path d="M104.37,161.69c6.78-6.88,10.17-10.72,10.17-14.3,0-2.58-1.39-4.59-4.49-4.59a6.46,6.46,0,0,0-4.81,2.71l-.94-.9c1.55-1.71,3.36-3,5.88-3,3.68,0,5.81,2.29,5.81,5.78,0,4.1-3.75,8-9.46,14.11,1.13-.06,2.32-.16,3.45-.16h7v1.29H104.37v-.9Z" style="fill:#fff"/></g></g></svg>