<svg xmlns="http://www.w3.org/2000/svg" viewBox="2551 -364 256.259 21"><defs><style>.a{fill:#fff;}</style></defs><g transform="translate(2551 -364)"><path class="a" d="M0,.7H7.513a6.659,6.659,0,0,1,4.614,1.479,4.973,4.973,0,0,1,1.656,3.9A4.912,4.912,0,0,1,12.955,8.8a3.817,3.817,0,0,1-2.13,1.6,4.716,4.716,0,0,1,3.608,4.732,5.246,5.246,0,0,1-1.775,4.082,6.483,6.483,0,0,1-4.555,1.6H0ZM4.377,8.8H6.8A2.793,2.793,0,0,0,8.7,8.213a2.025,2.025,0,0,0,.71-1.6,2.025,2.025,0,0,0-.71-1.6,2.855,2.855,0,0,0-1.952-.592H4.377V8.8Zm0,8.4H7.217a3.209,3.209,0,0,0,2.07-.651A2.188,2.188,0,0,0,10,14.838a2.276,2.276,0,0,0-.71-1.715,3.1,3.1,0,0,0-2.07-.651H4.377Z" transform="translate(0 -0.286)"/><path class="a" d="M48.9,20.913,45.293,13.4H43.7v7.513H39.2V.8h7.986a6.427,6.427,0,0,1,4.732,1.775,6.155,6.155,0,0,1,1.775,4.5,6,6,0,0,1-1.065,3.549,6.022,6.022,0,0,1-2.9,2.13l4.082,8.163ZM43.7,9.555h2.662a3.384,3.384,0,0,0,2.13-.651A2.408,2.408,0,0,0,49.2,7.13a2.232,2.232,0,0,0-.71-1.775,3.158,3.158,0,0,0-2.13-.651H43.7Z" transform="translate(-16.011 -0.327)"/><path class="a" d="M91.08,20.913l-1.42-4.082H81.852l-1.42,4.082H75.7L83.272.8h5.206L95.99,20.913ZM85.815,5.769l-2.485,6.98h4.91Z" transform="translate(-30.92 -0.327)"/><path class="a" d="M127.261,14.9l2.248,5.975h-4.673L117.5.7h4.91Z" transform="translate(-47.993 -0.286)"/><g transform="translate(69.448 0.414)"><path class="a" d="M135.975,1.292l-6.921,18.93h-3.786l-6.921-18.93h3.668l4.732,13.783.592,1.656.473-1.656,4.673-13.783h3.49M136.8.7Zm0,0h-4.792L127.22,14.9,122.369.7H117.4l7.394,20.113h4.614L136.8.7Z" transform="translate(-117.4 -0.7)"/></g><g transform="translate(97.014 0.414)"><path class="a" d="M176.127,1.292V4.368h-8.282V9.4h7.513v2.721h-7.513v5.028h8.282v3.076H164.592V1.292h11.535M176.718.7H164V20.813h12.777V16.554H168.5V12.708h7.513V8.745H168.5V4.959h8.282V.7Z" transform="translate(-164 -0.7)"/></g><g transform="translate(119.256 0.414)"><path class="a" d="M218.459,1.292v18.93h-3.845l-8.1-12.955-1.065-1.715V20.28h-3.254V1.351h4.555L214.141,13.3l1.124,1.775V1.292h3.194M219.051.7h-4.5V12.945L207.042.7H201.6V20.813h4.437V7.621l8.282,13.251h4.732V.7Z" transform="translate(-201.6 -0.7)"/></g><g transform="translate(145.048 0.414)"><path class="a" d="M261.527,1.292V4.427h-6.211V20.28H252V4.427h-6.211V1.292h15.735M262.118.7H245.2V5.018h6.211V20.872h4.5V5.018h6.211V.7Z" transform="translate(-245.2 -0.7)"/></g><g transform="translate(170.366 0.414)"><path class="a" d="M303.38,1.292V13.537a6.534,6.534,0,0,1-2.07,5.265,8.433,8.433,0,0,1-10.648,0,6.728,6.728,0,0,1-2.07-5.265V1.292H291.9v11.89a4.282,4.282,0,0,0,1.065,3.135,4.108,4.108,0,0,0,3.017,1.124A4.06,4.06,0,0,0,299,16.317a4.282,4.282,0,0,0,1.065-3.135V1.292h3.313M303.972.7h-4.5V13.182a3.547,3.547,0,0,1-.946,2.721,3.3,3.3,0,0,1-2.544.946,3.22,3.22,0,0,1-2.544-.946,3.886,3.886,0,0,1-.946-2.721V.7H288V13.537a7.349,7.349,0,0,0,2.248,5.679,8.19,8.19,0,0,0,5.738,2.011,8.291,8.291,0,0,0,5.738-2.011,7.349,7.349,0,0,0,2.248-5.679V.7Z" transform="translate(-288 -0.7)"/></g><g transform="translate(196.217 0.414)"><path class="a" d="M339.686,1.292A5.992,5.992,0,0,1,344,2.889a5.352,5.352,0,0,1,1.656,4.082,5.235,5.235,0,0,1-.946,3.194,5.34,5.34,0,0,1-2.662,1.952l-.651.237.3.592,3.668,7.276h-3.608l-3.431-7.158-.177-.355H335.6v7.513h-3.313V1.292h7.394M335.6,10.106h3.254a3.594,3.594,0,0,0,2.485-.828,2.9,2.9,0,0,0,.947-2.189,2.826,2.826,0,0,0-.947-2.248,3.594,3.594,0,0,0-2.485-.828H335.6v6.093M339.686.7H331.7V20.813h4.5V13.359h1.6l3.608,7.513h4.969l-4.141-8.163a5.366,5.366,0,0,0,2.9-2.13,6,6,0,0,0,1.065-3.549,6.061,6.061,0,0,0-1.775-4.5A6.328,6.328,0,0,0,339.686.7ZM336.2,9.514V4.6h2.662a3.384,3.384,0,0,1,2.13.651,2.232,2.232,0,0,1,.71,1.775,2.408,2.408,0,0,1-.71,1.775,2.879,2.879,0,0,1-2.13.651H336.2Z" transform="translate(-331.7 -0.7)"/></g><g transform="translate(219.701 0.414)"><path class="a" d="M383.586,1.292V4.368H375.3V9.4h7.513v2.721H375.3v5.028h8.282v3.076H371.992V1.292h11.594M384.177.7H371.4V20.813h12.777V16.554H375.9V12.708h7.513V8.745H375.9V4.959h8.282V.7Z" transform="translate(-371.4 -0.7)"/></g><g transform="translate(240.524)"><path class="a" d="M414.527.592a9.494,9.494,0,0,1,3.017.473,5.488,5.488,0,0,1,2.011,1.183,6.706,6.706,0,0,1,1.183,1.538,9.1,9.1,0,0,1,.473,1.124l-2.9.828a3.169,3.169,0,0,0-.946-1.42,3.836,3.836,0,0,0-2.839-.946,3.456,3.456,0,0,0-2.366.769,2.467,2.467,0,0,0-1.006,1.952c0,.946.414,2.13,2.485,2.485l2.721.532a6.692,6.692,0,0,1,3.963,2.011,4.817,4.817,0,0,1,1.361,3.49,5.334,5.334,0,0,1-1.834,4.023,6.957,6.957,0,0,1-5.028,1.775,7.638,7.638,0,0,1-5.5-1.834,6.458,6.458,0,0,1-2.07-3.608l2.958-.71a4.094,4.094,0,0,0,1.242,2.189,4.8,4.8,0,0,0,3.431,1.124,3.817,3.817,0,0,0,2.425-.71,2.414,2.414,0,0,0,1.006-2.011,2.214,2.214,0,0,0-.769-1.715,4.037,4.037,0,0,0-1.893-.887l-2.78-.532A6.246,6.246,0,0,1,409.2,9.82a4.779,4.779,0,0,1-1.3-3.431,5.27,5.27,0,0,1,1.952-4.2,7.109,7.109,0,0,1,4.673-1.6m0-.592a7.477,7.477,0,0,0-5.087,1.834,5.889,5.889,0,0,0-2.13,4.614,5.407,5.407,0,0,0,1.479,3.845,6.763,6.763,0,0,0,4.023,2.07l2.78.532a3.074,3.074,0,0,1,1.6.71,1.83,1.83,0,0,1-.177,2.839,3.193,3.193,0,0,1-2.07.592,4.314,4.314,0,0,1-3.017-1.006,3.8,3.8,0,0,1-1.183-2.485L406.6,14.552a7.173,7.173,0,0,0,2.366,4.5A8.4,8.4,0,0,0,414.882,21a7.808,7.808,0,0,0,5.442-1.893,5.961,5.961,0,0,0,2.011-4.437,5.707,5.707,0,0,0-1.538-3.9,7.359,7.359,0,0,0-4.318-2.189l-2.721-.532c-1.3-.237-2.011-.887-2.011-1.952a1.956,1.956,0,0,1,.769-1.538,3.153,3.153,0,0,1,2.011-.651,3.323,3.323,0,0,1,2.425.769,3.335,3.335,0,0,1,.947,1.715l4.023-1.124a6.784,6.784,0,0,0-.651-1.834,6.926,6.926,0,0,0-1.3-1.715,5.507,5.507,0,0,0-2.248-1.3A13.068,13.068,0,0,0,414.527,0Z" transform="translate(-406.6)"/></g></g></svg>